<svg width="62" height="61" viewBox="0 0 62 61" fill="none" xmlns="http://www.w3.org/2000/svg">
<path d="M54.2541 0.225779C53.5509 0.373487 52.2068 0.96564 50.4329 1.91048C46.8724 3.80709 43.9731 6.03177 41.2848 8.9119C39.7746 10.5299 38.6296 11.9988 37.6014 13.6521C37.3427 14.0639 37.1536 14.0444 35.6978 13.4709C32.3637 12.137 30.0333 11.6391 27.5799 11.7237C25.8081 11.7848 24.5458 12.1143 23.22 12.8617C21.5437 13.8097 21.5579 14.9722 23.2552 16.1417C23.8078 16.5255 24.2296 17.0762 24.5678 17.8377C25.1741 19.2138 25.384 20.5905 25.4109 23.4419C25.4194 24.4423 25.4266 24.4615 25.6144 24.8189C25.9546 25.4504 26.5233 25.5477 27.3466 25.1165C27.7358 24.9081 28.328 24.3679 31.7989 21.006C34.0063 18.8766 35.8936 17.0767 36.0019 17.0145C36.5303 16.6974 36.5588 16.9563 36.0877 17.8042C34.6936 20.3408 33.8387 23.6255 33.6677 27.1466C33.6071 28.4027 33.6232 30.0005 33.7099 31.0046L33.7938 31.9308L33.2186 32.7758C32.3212 34.0738 31.3248 35.7065 29.7 38.524C27.266 42.7468 26.2244 44.3876 24.652 46.4626C23.3656 48.1638 22.3811 49.0099 20.9158 49.6712C19.7066 50.2197 18.5278 50.5203 15.7692 50.9858C12.0158 51.6221 9.92126 52.1232 7.48785 52.9738C4.96469 53.86 2.65012 55.1419 2.10002 55.96C1.71038 56.5323 1.83617 56.9762 2.49303 57.3694C3.17653 57.7812 4.89154 58.3328 6.64594 58.7076C11.4575 59.7371 16.0538 60.1764 20.9235 60.0669C25.3584 59.9724 27.1278 59.6514 29.1248 58.582C31.6643 57.2274 33.39 54.6988 34.0115 51.4286C34.1603 50.6568 34.1596 50.6373 34.0757 47.8268C34.002 45.3149 34.0067 44.8859 34.1036 43.9274C34.7172 37.7922 36.8118 33.1457 40.4479 29.8625C41.6388 28.7819 44.1749 27.1415 45.7549 26.4177C46.4011 26.1226 47.153 25.8822 47.7407 25.7775C48.9808 25.5593 49.8514 25.9321 50.3525 26.8959C50.6726 27.5086 50.814 28.2185 50.8563 29.445C50.9938 33.0529 50.8624 36.4036 50.2309 45.2229C49.9461 49.2092 49.4822 55.3522 49.428 55.8544L49.3987 56.1348L49.9439 56.116L50.4891 56.0972L50.7296 53.2755C50.9727 50.5252 51.3408 46.3152 51.8118 40.945C52.1437 37.191 52.4669 34.8798 53.0378 32.2157C54.0399 27.5484 55.5902 23.512 57.4672 20.6599C58.0663 19.7555 59.0011 18.5992 59.5492 18.0995C60.0029 17.6875 60.2871 17.2619 60.2786 17.0153C60.2631 16.5675 59.9075 16.0535 59.4308 15.797C58.3648 15.223 56.1076 15.3399 54.2292 16.0804C52.761 16.6573 50.5203 17.8197 48.6308 18.9894C48.0773 19.3334 47.5997 19.6163 47.5672 19.6174C47.5348 19.6185 47.2421 19.4207 46.9218 19.1783C46.2479 18.6688 44.5613 17.6224 43.6681 17.1594C42.8412 16.7331 41.0664 15.9562 40.1848 15.6422C39.5794 15.4227 39.4006 15.3249 39.0788 15.0371C38.6764 14.6741 38.5846 14.4629 38.7948 14.3387C38.8585 14.304 39.1551 14.2353 39.4521 14.1796C40.8412 13.9497 42.9553 13.448 44.7047 12.9263C49.0275 11.6531 52.5902 10.0098 55.4511 7.98792C56.3772 7.33222 56.8492 6.88711 56.9685 6.57762C57.1054 6.21553 57.0463 5.6328 56.7679 4.71977C56.6285 4.25676 56.3107 3.14367 56.0654 2.24898C55.8198 1.34781 55.5848 0.563226 55.5499 0.492957C55.3774 0.20003 54.8734 0.0939626 54.2541 0.225779ZM52.7157 1.77976C52.9382 2.01249 52.9702 2.18681 52.8231 2.44529C52.0327 3.83052 43.0472 10.8393 39.8195 12.588C39.1179 12.9696 38.8612 13.0629 38.793 12.9678C38.7314 12.8789 39.7609 11.6414 41.1948 10.0715C44.9515 5.95253 48.5574 3.11222 51.5698 1.90374C52.3005 1.61214 52.5273 1.59133 52.7157 1.77976ZM37.6256 14.353C37.7254 14.4211 37.8801 14.5717 37.9622 14.6923C38.1802 14.9836 38.1753 15.5946 37.958 15.888C37.5426 16.4676 36.8112 16.5513 36.3077 16.0813C35.7837 15.5861 35.8609 14.8102 36.4757 14.3602C36.653 14.2241 36.7561 14.2011 37.0683 14.2098C37.3092 14.221 37.5059 14.2727 37.6256 14.353ZM58.6996 15.8872C60.1116 16.1309 60.0264 16.8615 58.4602 17.9876C57.0908 18.977 54.5625 20.2792 52.0312 21.3087C51.7045 21.4434 51.1282 21.6907 50.7509 21.8661L50.0727 22.1754L49.767 21.7896C49.5972 21.5746 49.1587 21.1089 48.7823 20.745C48.4123 20.3809 48.1285 20.0658 48.1536 20.039C48.2729 19.9179 50.4234 18.5897 51.3795 18.05C52.597 17.3647 53.2359 17.0503 54.2359 16.6519C55.9473 15.9692 57.5817 15.6919 58.6996 15.8872ZM35.0622 16.8975C35.0662 17.0143 34.5779 17.5509 33.1095 19.0635C29.6701 22.5868 28.0288 24.1703 27.4308 24.5418C26.782 24.9475 26.4637 24.7636 26.4431 23.9781C26.4297 23.5887 26.4527 23.5035 26.6497 23.1848C27.4746 21.8569 29.7095 19.9605 32.8938 17.8949C34.8006 16.6596 35.0499 16.5405 35.0622 16.8975ZM37.8004 16.972C38.5609 17.7319 39.6824 21.2343 40.0432 23.9703C40.1028 24.3776 40.1571 24.824 40.1748 24.9599C40.2088 25.1926 40.1903 25.2192 39.68 25.6852C39.3837 25.9488 39.1373 26.1522 39.1239 26.1397C39.1104 26.1272 38.9795 25.9108 38.8217 25.6693C37.7495 23.9715 37.0617 20.9869 37.0865 18.1271C37.0928 16.9899 37.1445 16.7932 37.4365 16.7831C37.5404 16.7795 37.6793 16.8527 37.8004 16.972ZM48.712 22.8526C48.6491 22.9133 48.2723 23.1017 48.2714 23.0757C48.2698 23.0303 48.601 22.837 48.6787 22.8278C48.7111 22.8267 48.7246 22.8392 48.712 22.8526ZM48.0807 23.1993C48.0811 23.2122 48.0368 23.2463 47.9791 23.2677C47.9278 23.289 47.9016 23.2834 47.9198 23.2438C47.9565 23.1776 48.0789 23.1473 48.0807 23.1993ZM47.5771 23.483C47.431 23.579 47.2842 23.6556 47.2582 23.6565C47.1931 23.6522 47.7208 23.3156 47.7922 23.3132C47.8311 23.3118 47.7298 23.3868 47.5771 23.483ZM40.2755 26.1844C40.299 26.3006 40.3279 26.9493 40.3382 27.6247L40.3481 28.8524L39.3965 29.8988C37.7497 31.7034 36.9745 32.7762 35.6073 35.1495C34.6082 36.8928 34.0387 38.0885 33.7173 39.1326C33.3026 40.4854 33.0209 42.113 32.8492 44.1071C32.6653 46.3096 32.0279 47.8 30.63 49.2842C29.7149 50.2579 28.8586 50.8657 27.0845 51.804C25.5911 52.5897 25.1614 52.754 24.0375 52.9487C21.1499 53.4447 16.2236 53.4197 15.7706 52.909C15.6694 52.802 15.701 52.3981 15.8192 52.2446C15.9687 52.0575 16.3722 51.8876 17.9325 51.3465C20.3534 50.5093 21.7085 49.8583 23.142 48.8407C24.5882 47.8162 25.3502 46.7374 28.3729 41.4936C31.8982 35.3749 33.3697 33.1995 36.0958 30.0971C37.1779 28.8773 40.0352 25.9978 40.1905 25.9794C40.2165 25.9785 40.2523 26.0748 40.2755 26.1844Z" fill="#E31F1F"/>
<path d="M36.7094 14.6736C36.1808 14.9842 36.2936 15.8055 36.8834 15.9476C37.4926 16.089 37.9334 15.4955 37.6472 14.9206C37.5004 14.6203 37.0087 14.4943 36.7094 14.6736Z" fill="#E31F1F"/>
</svg>
