<svg width="213" height="142" viewBox="0 0 213 142" fill="none" xmlns="http://www.w3.org/2000/svg">
<path d="M122.135 1.08844C121.255 1.20204 120.119 1.67064 119.458 2.19604C118.535 2.92734 117.868 3.78644 117.257 5.02184C116.498 6.56254 115.972 8.50084 115.667 10.8935C115.454 12.5265 115.383 13.5986 115.269 16.9498C115.213 18.6254 115.134 20.1235 115.092 20.2726C115.049 20.4217 114.893 20.6631 114.751 20.8051C114.432 21.1246 114.055 21.7494 113.402 23.0558C112.948 23.9717 112.557 24.845 110.661 29.1618C110.278 30.0209 109.802 30.9936 109.596 31.3273C108.468 33.152 108.198 33.578 108.084 33.72C108.013 33.7981 107.53 34.0821 107.005 34.3448C106.487 34.6004 105.812 34.9696 105.507 35.1613C104.577 35.7435 100.494 37.7386 99.053 38.3208C97.9312 38.7681 95.5953 39.3148 93.8771 39.5349C92.2441 39.7408 91.2643 40.0035 90.6537 40.4011C90.3413 40.607 89.965 41.0827 89.4609 41.9063C89.042 42.6021 88.9284 42.7015 88.3959 42.9074C87.906 43.092 87.7569 43.2269 87.7569 43.4825C87.7569 43.6813 87.8989 43.7878 88.332 43.9227C88.4385 43.9511 88.4243 44.0221 88.2397 44.5475C87.9273 45.4208 87.5581 46.9615 87.3238 48.3602C87.2102 49.0418 87.1037 49.6169 87.0824 49.6311C87.0682 49.6524 86.3511 49.7731 85.5062 49.9009C84.6542 50.0287 83.5608 50.1991 83.0709 50.2772C82.581 50.3553 81.7716 50.476 81.2675 50.547L80.3516 50.6748L80.4013 53.5503C80.4297 55.1336 80.4936 59.4575 80.5504 63.1708C80.6072 66.877 80.6711 70.8956 80.6995 72.0955L80.7492 74.2823H80.9693C81.1681 74.2823 82.4887 74.1971 85.3429 73.9983C85.9109 73.9557 88.2397 73.7995 90.5259 73.6433C98.5702 73.0966 97.5123 73.2102 99.3299 72.7132C100.21 72.4789 101.339 72.1736 101.85 72.0387C102.354 71.9038 102.795 71.7689 102.823 71.7405C102.859 71.705 102.738 70.7607 102.56 69.6318C102.099 66.6072 100.984 59.3794 100.317 55.1123C100.004 53.0604 99.6423 50.7103 99.5145 49.8938L99.2873 48.4028L97.4839 48.3815C95.9716 48.3673 95.5314 48.3886 94.7575 48.5022C94.2534 48.5803 93.8274 48.6371 93.8203 48.63C93.8132 48.6229 93.6925 48.2466 93.5434 47.7993C93.2807 46.997 92.5849 45.1865 92.4074 44.8457C92.3222 44.6824 92.3435 44.6469 92.7269 44.2564C92.947 44.0292 93.3375 43.5109 93.586 43.1062C94.1114 42.2684 94.6297 41.7927 95.2829 41.5442C96.0497 41.2531 98.6199 40.749 101.687 40.2804C102.227 40.1952 103.128 39.9893 103.711 39.8118C104.981 39.4355 109.895 37.767 110.179 37.6179C110.441 37.483 110.498 37.4049 110.697 36.9363C110.945 36.3399 111.329 35.7293 112.145 34.6572C112.884 33.6916 114.325 31.5332 114.978 30.4398C115.163 30.1274 115.376 29.7937 115.454 29.6943L115.596 29.5168L115.553 29.8079C115.433 30.6244 115.795 32.3213 116.32 33.365C116.526 33.7626 117.172 34.7353 117.243 34.7353C117.25 34.7353 117.25 34.5933 117.236 34.4158C117.208 34.1247 117.229 34.075 117.477 33.8336L117.747 33.5638L117.797 33.8975C117.903 34.5933 118.429 35.4666 119.309 36.4038C119.742 36.8653 119.771 36.8795 119.671 36.6381C119.522 36.2547 119.423 35.7648 119.359 35.1045C119.309 34.5365 119.366 34.3164 119.458 34.7282C119.572 35.2465 120.559 36.3683 121.532 37.0783C121.773 37.2558 121.986 37.4617 122.007 37.5398C122.142 38.0368 121.993 39.6485 121.652 41.4448C121.489 42.2755 121.446 42.4033 121.198 42.7228C120.587 43.518 120.147 44.6824 119.948 46.0527C119.771 47.2384 119.842 49.3684 120.09 50.6038C120.594 53.1314 121.681 55.4744 123.278 57.4766C123.612 57.8955 123.832 58.2576 123.931 58.5416C124.372 59.7912 126.267 62.9649 129.533 67.9065C130.094 68.7585 130.208 68.9857 130.172 69.1277C130.108 69.3904 130.265 70.4128 130.549 71.563L130.79 72.5712L130.265 73.2315C128.553 75.3828 127.098 78.1589 125.997 81.3823C125.628 82.4757 124.911 84.9323 124.805 85.4648C124.663 86.2103 124.478 86.3523 123.52 86.5227C123.172 86.5795 122.71 86.7144 122.49 86.8209C121.879 87.1191 121.29 87.7581 120.893 88.5533C120.488 89.3627 120.346 89.9804 120.346 90.9318C120.346 92.3305 120.175 93.2393 119.735 94.2191C118.89 96.0864 119.018 96.9313 120.481 99.111C121.368 100.439 121.972 100.95 122.717 101.028C123.228 101.078 123.64 100.929 124.024 100.538C124.414 100.148 124.514 99.8139 124.677 98.3513C124.854 96.7822 124.904 96.5479 125.216 95.845C125.351 95.5326 125.699 94.5812 125.99 93.7434C126.274 92.8985 126.558 92.0962 126.615 91.9613C126.672 91.8264 126.984 90.8324 127.304 89.7603C127.623 88.6882 127.964 87.5664 128.064 87.2753C128.326 86.4801 129.001 85.266 130.066 83.6614L130.605 82.852L130.655 83.1289C130.726 83.5407 130.719 87.0197 130.641 87.6019C130.513 88.5959 129.768 90.52 129.05 91.7199C128.426 92.7707 128.22 93.9351 128.362 95.5539C128.44 96.3562 128.433 96.5266 128.348 96.697C127.95 97.4567 127.659 98.7702 127.609 99.9914C127.567 101.042 127.609 101.22 127.993 101.575C128.419 101.972 129.391 102.086 130.442 101.866C131.791 101.582 132.338 100.524 132.345 98.2093C132.345 97.7194 132.38 97.194 132.416 97.0378C132.458 96.8816 132.522 95.5894 132.558 94.1623C132.657 90.5129 132.884 89.2207 133.722 87.5309C134.205 86.5653 134.681 85.2163 135.355 82.9088C135.568 82.1633 135.795 81.4178 135.859 81.2403C136.122 80.5019 136.584 78.3719 136.995 75.965L137.187 74.8432L137.585 74.474C138.089 73.9983 138.863 73.0398 139.005 72.7203C139.175 72.344 139.14 71.2151 138.948 70.3773C138.657 69.1561 138.018 67.5302 137.088 65.6984L136.392 64.3139L136.669 63.7814C137.208 62.7306 137.741 61.2751 138.238 59.4788C138.501 58.5203 138.969 56.511 139.061 55.9288C139.097 55.6732 139.147 55.6164 139.58 55.3608C140.041 55.0839 140.048 55.0697 140.148 54.6508C140.226 54.3171 140.247 53.5006 140.247 50.9943C140.254 47.5295 140.219 46.997 139.828 44.6185C139.729 44.015 139.665 43.5109 139.679 43.4967C139.7 43.4754 139.913 43.4328 140.162 43.3973C141.461 43.2127 146.339 42.5595 147.539 42.4033C148.632 42.2613 148.604 42.2755 148.604 42.0199C148.604 41.8992 148.625 41.7217 148.654 41.6294L148.696 41.459L149.648 41.5016C151.06 41.5584 151.337 41.4519 153.261 40.1242C153.844 39.7266 154.717 39.1302 155.207 38.7965C156.201 38.122 156.485 37.8664 156.485 37.6179C156.485 37.5185 156.35 37.199 156.194 36.9008C155.931 36.4109 155.91 36.3399 155.988 36.1695C156.215 35.6654 158.281 32.7189 159.034 31.8243C159.474 31.2918 159.659 30.8871 159.566 30.596C159.545 30.5108 159.105 30.0067 158.586 29.4813C157.521 28.3808 156.57 27.3939 154.71 25.4343C153.986 24.6746 153.041 23.6806 152.615 23.2333C152.182 22.786 151.494 22.0618 151.089 21.6358C150.684 21.2027 150.074 20.5637 149.74 20.2158C148.746 19.1792 146.602 16.8362 146.268 16.4386C145.956 16.0552 145.565 15.8635 145.238 15.9416C145.153 15.9629 143.4 16.3179 141.333 16.7297C137.67 17.4681 137.563 17.4823 137.301 17.3758C137.152 17.319 136.882 17.2693 136.704 17.2693C136.42 17.2693 136.385 17.2551 136.463 17.1628C136.576 17.0279 136.505 16.7652 136.285 16.5025C136.186 16.3818 136.108 16.2398 136.108 16.1688C136.108 15.7712 135.781 15.6363 134.787 15.6363H134.049V15.4588C134.049 15.2813 133.829 14.9973 133.694 14.9973C133.367 14.9973 131.919 15.8209 131.763 16.0978C131.727 16.1475 131.77 16.2682 131.862 16.3818L132.018 16.5806L131.699 16.5309C131.528 16.4954 130.825 16.3889 130.13 16.2824C128.972 16.0978 128.859 16.0694 128.596 15.8564C127.985 15.3736 127.574 14.7417 127.481 14.1382C127.439 13.8613 127.46 13.7761 127.616 13.5489C127.794 13.2791 128.433 11.7242 128.575 11.1988C128.617 11.0426 128.738 10.787 128.837 10.6379C129.448 9.74334 129.789 8.92684 129.789 8.35174C129.789 8.01094 129.76 7.93284 129.576 7.74114C129.448 7.61334 129.363 7.45714 129.363 7.34354C129.363 6.71874 128.624 4.30474 128.22 3.58054C127.872 2.96284 127.027 2.16764 126.338 1.80554C125.635 1.44344 124.684 1.18074 123.69 1.08134C122.881 1.00324 122.781 1.00324 122.135 1.08844ZM89.1769 44.3345C89.3686 44.6469 89.6952 44.8883 89.9295 44.8883C90.0076 44.8883 90.1354 44.9522 90.2064 45.0303C90.3839 45.222 90.7957 45.2149 91.3992 44.9948L91.882 44.8244L92.1021 45.3001C92.45 46.074 93.3872 48.6513 93.3446 48.701C93.3304 48.7081 92.9896 48.7649 92.5778 48.8288C92.1731 48.8856 91.5554 48.985 91.2004 49.0418C89.4893 49.3187 87.6646 49.5743 87.6362 49.5459C87.5652 49.4749 88.0054 47.0893 88.2894 45.9888C88.4456 45.3853 88.9071 44.0363 88.9568 44.0363C88.9781 44.0363 89.0775 44.1712 89.1769 44.3345Z" fill="#F55555" fill-opacity="0.4"/>
<path d="M54.7352 12.2301C52.9744 12.5141 52.2005 12.9259 51.7319 13.8489C51.526 14.2536 51.2633 15.1482 51.2633 15.4393C51.2633 15.5458 51.1497 15.915 51.0077 16.2487C50.4894 17.5054 50.461 18.1089 50.8586 19.3301C51.0929 20.0685 51.1355 20.7217 51.0219 21.9642C50.9793 22.3973 50.9864 22.6884 51.0503 22.9582C51.3201 24.0871 52.1721 25.4574 53.3649 26.6857L53.9045 27.2466L54.0394 28.1696L54.1743 29.0926L53.8903 29.3482C53.4359 29.76 52.9105 29.8736 51.3911 29.8736C50.7024 29.8736 50.1557 29.8949 50.177 29.9233C50.1912 29.9588 49.9924 29.9801 49.7368 29.9801C49.2043 29.9801 48.8706 30.1292 48.8067 30.3848C48.7783 30.4771 48.7215 30.5481 48.6718 30.5481C48.6221 30.5481 48.4659 30.6475 48.3168 30.7611C47.4932 31.4143 46.7974 33.2248 46.3359 35.9157L46.1655 36.9026L45.7466 37.3428C45.1928 37.9392 44.6177 38.8693 44.3692 39.5864C43.9716 40.7437 43.9432 41.6738 44.2769 43.1364C44.4118 43.7328 44.4473 44.0665 44.4331 44.5919L44.4118 45.2806L42.6368 45.4368C41.6641 45.522 40.5281 45.6498 40.1163 45.7066C39.7045 45.7705 39.0229 45.8415 38.5898 45.8628C37.3402 45.9267 34.0103 45.664 32.8885 45.4155C32.214 45.2664 31.6389 45.2948 28.7918 45.664C26.6334 45.9409 25.9518 46.0758 25.6962 46.2604C25.469 46.4308 24.4466 48.0638 24.404 48.3336C24.3259 48.8093 24.5318 49.5477 24.8584 49.9595L25.0146 50.1583L24.7945 50.5985C24.6738 50.8328 24.2833 51.5712 23.9283 52.2386C23.5733 52.8989 23.1331 53.7438 22.9485 54.0988C22.771 54.4609 22.5864 54.7591 22.5367 54.7591C22.416 54.7591 20.4067 54.1982 19.6115 53.9426C19.2139 53.8148 18.8731 53.7296 18.8589 53.758C18.8447 53.7793 18.4755 55.5756 18.0353 57.7411C17.6022 59.9066 17.0981 62.349 16.9206 63.1726C16.1538 66.7226 15.7633 68.455 15.6355 68.8597C15.4722 69.3567 14.8616 70.5992 14.3433 71.4654C14.1516 71.7991 13.9883 72.0973 13.9883 72.1328C13.9883 72.1612 14.4001 72.431 14.8971 72.7292C15.3941 73.0274 16.3597 73.6096 17.0413 74.0214L18.2838 74.774L20.854 74.8734C22.274 74.9231 23.4384 74.987 23.4526 75.0012C23.4668 75.0154 23.7153 76.2579 24.0064 77.7631L24.5389 80.4966L24.9223 80.4895C25.3128 80.4824 26.6121 80.383 28.0818 80.2481C28.5149 80.2126 30.4106 80.0493 32.3063 79.886C34.202 79.7298 36.8077 79.5097 38.0928 79.4032C39.385 79.2896 40.45 79.2186 40.4642 79.2328C40.4855 79.247 40.5068 80.2552 40.521 81.4764C40.5423 83.3508 40.5636 83.7271 40.663 83.9259C40.7695 84.146 40.7695 84.2312 40.5849 85.4879C40.4784 86.2192 40.3222 87.199 40.2441 87.6676C40.1589 88.1362 40.0808 88.6545 40.0666 88.8107C39.953 89.8686 40.8618 91.4519 42.2818 92.6873L42.935 93.2553L42.9776 94.1215C43.0628 95.8894 43.7231 98.417 45.4768 103.65C46.1229 105.574 46.6483 107.2 46.6483 107.278C46.6483 107.349 46.7406 107.796 46.8542 108.265C47.1382 109.415 47.1737 109.891 47.0459 110.707C46.9181 111.531 46.8755 112.063 46.7903 114.151C46.7477 115.045 46.6909 115.954 46.6554 116.16C46.5844 116.621 46.2365 117.147 45.2354 118.325C44.3266 119.39 44.2982 119.596 45.0437 119.902C45.5833 120.129 46.3288 120.228 47.7843 120.271C49.1688 120.306 49.2611 120.299 49.5309 120.164C50.0776 119.887 50.4184 119.362 50.5604 118.595C50.7237 117.729 51.5899 115.429 51.7603 115.429C51.8171 115.429 51.9378 115.535 52.023 115.67C52.2076 115.94 52.6265 117.211 52.7614 117.885C52.8324 118.254 52.8608 118.311 52.9957 118.29C53.1306 118.269 53.1519 118.198 53.23 117.452C53.2797 117.005 53.4359 115.677 53.5779 114.506C53.8761 112.07 53.869 111.893 53.443 110.984C53.1164 110.302 52.4703 109.415 52.1579 109.216C51.6041 108.882 51.313 108.343 51.0929 107.292C50.9509 106.589 50.8231 105.056 50.8515 104.353L50.8728 103.785L51.2065 104.246C51.7035 104.942 52.0869 105.602 52.6194 106.66C53.2442 107.91 53.514 108.606 53.6063 109.195C53.7625 110.196 53.9045 111.062 54.1033 112.163C54.3234 113.426 54.366 113.845 54.4299 115.748C54.4654 116.756 54.4583 117.111 54.3873 117.239C54.3376 117.339 54.0323 117.821 53.6986 118.318C53.372 118.815 53.0738 119.305 53.0383 119.405C52.9105 119.738 53.159 120.079 53.6063 120.2C54.1743 120.356 55.8357 119.88 58.1432 118.901C59.4851 118.333 59.6413 118.212 59.975 117.559C60.1951 117.133 60.2306 116.494 60.0673 115.698C59.9821 115.265 59.9821 115.052 60.0531 114.385C60.1028 113.945 60.1596 113.568 60.1809 113.547C60.2164 113.519 60.33 113.632 60.6282 114.016C60.6637 114.058 60.7915 114.278 60.9193 114.513C61.111 114.861 61.4021 115.372 61.4518 115.45C61.4589 115.457 61.5583 115.436 61.6648 115.393C61.8068 115.336 61.8423 115.287 61.8068 115.194C61.6009 114.662 61.2033 112.333 61.0897 110.927L61.04 110.331L61.3524 110.381C61.7074 110.437 63.9652 110.785 65.371 110.991L66.3082 111.133L67.0395 110.956C67.4442 110.863 68.8074 110.544 70.0783 110.253C72.9112 109.607 77.3842 108.577 81.2963 107.675C82.9151 107.299 84.3919 106.965 84.5836 106.923L84.9173 106.852V106.199C84.9173 105.368 84.4913 101.193 84.2073 99.2406C84.1647 98.9637 84.0014 97.7709 83.8452 96.5781C83.1281 91.0969 81.0052 76.336 80.0254 69.9531C79.9118 69.2289 79.7627 68.2491 79.6917 67.7734C79.6278 67.2977 79.5497 66.8717 79.5213 66.8291C79.4929 66.7794 78.8965 66.8291 77.7037 66.9711C76.1062 67.1557 75.9287 67.1699 75.8648 67.0634C75.6092 66.6587 75.7583 66.6658 73.7774 66.9356C72.7834 67.0705 71.9598 67.1699 71.9456 67.1557C71.9101 67.1273 70.6605 60.1054 70.4901 58.9907L70.412 58.5008L70.7102 58.2594C70.8735 58.1245 71.0368 57.947 71.0794 57.8689C71.1575 57.7198 71.2853 57.1518 71.5764 55.7247C71.7894 54.6526 71.6758 54.2905 70.8806 53.5521C70.6179 53.3036 70.3623 53.0338 70.3268 52.9557C70.199 52.7072 69.7517 52.5439 69.3044 52.5794C66.9685 52.764 66.3011 52.7924 66.2372 52.693C66.0455 52.4019 65.9958 51.9617 66.0029 50.5701C66.0029 48.0283 66.1662 42.0785 66.2727 40.2751C66.4218 37.9818 66.4147 36.5831 66.2727 35.8873C65.9532 34.3537 65.0373 32.7207 63.7877 31.4569C63.3688 31.0309 63.2907 30.9883 63.1061 31.0238C62.9357 31.0593 62.8505 31.0238 62.6375 30.8179C62.4955 30.683 62.2115 30.4416 62.0056 30.2712C61.2317 29.6464 60.8696 28.7731 60.9406 27.6797C60.9619 27.3247 61.0471 26.8277 61.1252 26.5721C61.2459 26.1887 61.3311 26.0609 61.6222 25.8124C62.0482 25.4432 62.389 24.9036 62.8008 23.9096C62.9783 23.4907 63.1203 23.1357 63.1203 23.1215C63.1203 23.1073 63.0422 23.0931 62.9428 23.0931C62.6872 23.0931 62.2044 22.8801 62.1263 22.731C61.9914 22.4825 62.0482 22.0068 62.2683 21.5453C62.7298 20.5726 62.7085 19.2591 62.2328 18.7834C62.0269 18.5775 61.9985 18.4994 61.963 18.0308C61.8636 16.6534 60.7986 14.5731 59.6413 13.4797C59.0662 12.9401 58.3065 12.5283 57.5042 12.3366C56.9646 12.2017 55.2961 12.1378 54.7352 12.2301ZM60.7773 49.3347C60.9903 50.4991 61.0755 51.699 61.0542 53.5095C61.0329 55.4691 61.0755 55.7247 61.5725 56.4702C62.0624 57.2015 62.8789 57.734 63.8942 57.9967C64.6823 58.1955 65.3284 58.0464 66.5354 57.379C66.8194 57.2299 67.1815 57.0808 67.3377 57.0595L67.6288 57.0169L67.2312 57.4287C66.7626 57.9186 66.7129 58.0251 66.8549 58.231C66.9401 58.3517 67.0395 58.3801 67.3235 58.3801C67.5791 58.3801 67.6714 58.4085 67.643 58.4653C67.5791 58.6286 64.6042 65.7144 63.9652 67.2196C63.7309 67.7663 63.5179 68.2349 63.4824 68.2704C63.454 68.2988 63.0635 68.3698 62.6162 68.4337C62.1689 68.4905 61.4376 68.5828 60.9903 68.6467C60.543 68.7035 59.3786 68.8597 58.3988 68.9946C57.4261 69.1295 56.5954 69.2431 56.5528 69.2431C56.5031 69.2431 56.4818 70.2016 56.4747 72.2109C56.4676 73.8368 56.4108 76.4496 56.3469 78.0116C56.1694 82.2645 55.7931 89.9751 55.5588 93.9795C55.5091 94.9593 55.4026 96.7627 55.3387 97.9768C55.2677 99.198 55.1967 100.199 55.1754 100.199C55.1541 100.199 55.076 100.029 55.005 99.8228C54.4015 98.0904 53.9116 96.6136 53.7057 95.8752C53.5708 95.3924 53.3152 94.7108 53.1377 94.3629C52.7898 93.6671 51.8455 92.24 50.8941 90.962C50.0279 89.8047 49.5877 89.1089 49.4457 88.6829C49.2824 88.1717 49.2966 87.0712 49.4812 86.2831C49.609 85.7435 50.4042 83.6703 51.2988 81.5616C51.7319 80.5321 52.1082 79.5523 52.6265 78.0826C53.8619 74.5681 54.0252 74.1421 54.5719 73.0487C55.076 72.0547 55.4381 71.2311 56.0984 69.5839C56.9859 67.3616 57.3054 66.1688 57.6533 63.7761C57.8521 62.4555 57.8166 61.6816 57.3267 56.8678C57.2202 55.8525 57.2202 55.2561 57.3125 53.9781C57.3267 53.7864 57.2983 53.7154 57.1847 53.6657C57.0427 53.6018 57.0427 53.6018 57.1705 53.0267C57.2486 52.7072 57.3196 52.338 57.348 52.196C57.3764 52.0185 57.4474 51.9049 57.5823 51.8268C57.987 51.5854 59.4283 49.8743 60.2803 48.6247C60.5075 48.2839 60.5217 48.2768 60.5785 48.4472C60.614 48.5395 60.7063 48.9371 60.7773 49.3347ZM32.1501 49.001C32.5477 49.1998 33.3145 49.3986 35.0753 49.7465C36.6018 50.0518 40.0595 50.6198 41.3162 50.776C41.6428 50.8186 41.9268 50.8683 41.941 50.8825C41.9623 50.8967 41.941 50.9748 41.8984 51.0529C41.8558 51.131 41.6144 51.8907 41.3659 52.7427C40.9612 54.0988 40.7056 54.8869 40.4074 55.6324C40.3648 55.7389 40.1589 56.2004 39.9459 56.6619C39.7329 57.1163 39.4986 57.7198 39.4134 57.9896C38.8951 59.7362 38.4478 63.3714 38.3058 66.9711C38.2561 68.0787 38.2206 68.8242 38.1993 68.8881C38.1993 68.9094 37.9224 68.1852 37.5887 67.2906C37.2621 66.3889 36.8006 65.1464 36.5663 64.5216C36.3391 63.8968 35.8421 62.5549 35.4658 61.5396C35.0895 60.5243 34.699 59.4735 34.5996 59.2037L34.415 58.7138L33.2577 58.7493L32.1004 58.7848L32.0649 58.4582C32.0436 58.2807 31.9726 57.6488 31.9087 57.0666C31.8448 56.4773 31.7809 55.9874 31.7667 55.9732C31.7525 55.959 31.5111 55.8951 31.2342 55.8241L30.723 55.7105L29.9846 54.042C29.5799 53.1261 29.0545 51.9546 28.8273 51.4363C28.593 50.918 28.4013 50.4707 28.4013 50.4423C28.4084 50.4139 28.5291 50.2577 28.6853 50.0873C28.9338 49.8104 29.0261 49.7607 29.6225 49.6045C29.9846 49.5122 30.4745 49.3347 30.7088 49.2069C31.4401 48.8306 31.7312 48.788 32.1501 49.001ZM25.5613 50.3997C25.5613 50.421 25.6607 51.0103 25.7743 51.7203C25.895 52.4232 25.9873 53.0977 25.9873 53.2184C25.9873 53.4172 25.3412 55.0644 25.1992 55.2135C25.1495 55.2703 23.0905 54.9437 23.0195 54.8656C23.0053 54.8514 23.5165 53.8361 24.1555 52.6007C25.0004 50.9677 25.3483 50.3571 25.4406 50.3571C25.5045 50.3571 25.5613 50.3713 25.5613 50.3997ZM26.4843 51.2801L26.6476 51.841L26.4772 52.2528L26.3139 52.6646L26.1506 51.7061C26.0654 51.1807 25.9802 50.6553 25.9518 50.5346L25.9163 50.3287L26.1222 50.5275C26.2642 50.6624 26.3707 50.8896 26.4843 51.2801ZM28.6782 52.9273C29.0403 54.1414 29.3527 55.1709 29.3669 55.2206C29.3882 55.2774 29.2107 55.2987 28.7492 55.2987L28.1031 55.2916L27.5777 53.5876L27.0594 51.8836L27.2653 51.3866C27.457 50.9109 27.6487 50.7263 27.9469 50.7121C27.9824 50.7121 28.3161 51.7061 28.6782 52.9273ZM27.0523 50.9038C27.0452 50.9961 26.8464 51.3227 26.8393 51.2446C26.8393 51.202 26.818 51.1026 26.7967 51.0103C26.7612 50.8825 26.7825 50.8541 26.9032 50.8541C26.9813 50.8541 27.0523 50.8754 27.0523 50.9038ZM27.2937 53.9213C27.5138 54.6526 27.6913 55.2774 27.6913 55.32C27.6913 55.3697 27.5138 55.3981 27.2369 55.3981H26.7754L26.7044 55.0218C26.6618 54.823 26.5837 54.3544 26.5269 53.9923L26.4204 53.332L26.605 52.906C26.7044 52.6717 26.8109 52.5084 26.8393 52.5368C26.8677 52.5652 27.0736 53.19 27.2937 53.9213ZM29.8852 54.7378C30.2402 55.533 30.2402 55.5401 30.0698 55.5401C29.9775 55.5401 29.871 55.4833 29.8355 55.4123C29.7574 55.2703 29.1823 53.3604 29.1894 53.2823C29.1965 53.2255 29.3953 53.6515 29.8852 54.7378ZM26.3352 55.2348C26.3423 55.3839 26.321 55.391 26.0086 55.3484C25.8169 55.3271 25.6536 55.2987 25.6394 55.2845C25.6181 55.2632 25.7175 55.0147 26.0441 54.2621L26.1577 54.0136L26.2429 54.5461C26.2926 54.8372 26.3352 55.1496 26.3352 55.2348ZM69.3328 58.373C69.3541 58.4511 69.4393 58.5363 69.5245 58.5647L69.6736 58.6073L69.6239 61.994C69.6026 63.8542 69.56 65.8564 69.5387 66.4457L69.489 67.5107L67.9838 67.7095C67.1531 67.816 66.4289 67.8941 66.3721 67.8799C66.2798 67.8657 66.365 67.4184 66.8478 65.3381C67.1673 63.9536 67.6643 61.8236 67.9412 60.6166C68.2181 59.4025 68.4666 58.373 68.4808 58.3233C68.5021 58.2736 68.6512 58.2381 68.8997 58.2381C69.2192 58.2381 69.2973 58.2594 69.3328 58.373ZM67.9909 58.8203C67.9483 58.9765 67.4726 60.9929 67.1318 62.4626C67.0395 62.8531 66.7555 64.0956 66.4928 65.2316C66.2301 66.3605 65.9745 67.4468 65.9319 67.6456L65.8538 68.0006L64.9308 68.1213C64.4267 68.1923 64.0078 68.2349 63.9865 68.2207C63.9723 68.2065 64.1711 67.7024 64.4196 67.0989C64.6752 66.5025 65.1438 65.3878 65.4633 64.6281C65.7828 63.8684 66.1591 62.9525 66.3082 62.6046C66.4573 62.2496 66.8904 61.2201 67.2738 60.3113C67.9057 58.8203 68.1187 58.3801 67.9909 58.8203ZM70.6747 62.2496C70.8522 63.2649 71.122 64.7985 71.2782 65.6576C71.4273 66.5167 71.548 67.2267 71.5409 67.2338C71.5196 67.2551 69.9718 67.4468 69.9363 67.4326C69.9079 67.4113 70.0428 59.5019 70.0783 59.1256C70.0925 58.9694 70.1777 59.4238 70.6747 62.2496Z" fill="#F55555" fill-opacity="0.4"/>
<path d="M167.881 14.2175C166.312 14.6364 165.538 15.3393 164.338 17.4338C163.735 18.4988 163.153 19.8691 161.811 23.4475C160.788 26.1739 160.618 26.8697 160.696 28.0909C160.767 29.1914 161.15 30.0363 161.917 30.7463C162.315 31.1226 163.032 31.5486 163.543 31.7119C163.699 31.7616 163.678 31.8255 163.28 32.5284C162.904 33.1958 162.258 33.849 161.69 34.1543C161.449 34.2821 160.902 34.5093 160.476 34.6584C159.219 35.1057 158.807 35.3684 158.523 35.9009C158.381 36.1636 158.367 36.2914 158.374 37.186C158.381 37.9883 158.417 38.3504 158.573 39.0675C158.708 39.6923 158.786 40.31 158.829 41.162C158.871 41.9288 158.978 42.8092 159.113 43.576C159.439 45.4078 159.489 45.9403 159.446 47.2325C159.382 48.9223 159.184 49.8666 158.651 50.9174C158.133 51.9611 157.828 53.0829 156.983 57.137C156.621 58.8623 156.45 59.5439 155.925 61.326C155.328 63.3353 154.952 64.1944 154.292 65.0677C153.603 65.9765 152.581 66.7575 152.091 66.7575C151.594 66.7575 150.891 67.0699 150.181 67.5953C149.279 68.2698 148.321 69.562 148.321 70.1087C148.321 70.4708 148.697 70.8897 149.151 71.0459C149.599 71.2021 149.648 71.195 149.698 70.9465C149.719 70.8187 149.783 70.7335 149.847 70.7335C149.911 70.7335 149.947 70.7619 149.925 70.7974C149.897 70.8329 149.961 70.9607 150.06 71.0814L150.245 71.2944L149.379 73.9427C148.903 75.3982 148.498 76.6123 148.47 76.6336C148.448 76.662 148.221 76.6549 147.966 76.6194C147.71 76.5839 146.198 76.3922 144.593 76.2005C142.996 76.0088 141.547 75.8313 141.384 75.81C141.114 75.7674 141.079 75.7816 141.05 75.9307C141.029 76.023 140.866 77.3223 140.688 78.8275C140.255 82.4414 139.73 86.7582 139.588 87.9155C139.403 89.371 139.282 90.4005 139.055 92.282C138.92 93.4109 138.707 95.122 138.594 96.0805C138.48 97.039 138.253 98.8921 138.097 100.199C137.94 101.505 137.777 102.818 137.742 103.11C137.536 104.593 137.479 105.254 137.557 105.275C137.628 105.296 138.53 105.374 142.854 105.701C143.613 105.758 144.401 105.822 144.593 105.843C144.792 105.864 145.971 105.957 147.22 106.056C148.47 106.155 150.259 106.297 151.196 106.376C155.541 106.723 157.7 106.887 157.735 106.858C157.749 106.837 157.813 106.155 157.877 105.339C157.934 104.522 157.998 103.791 158.012 103.713C158.041 103.592 158.275 103.5 159.539 103.145C160.369 102.911 161.072 102.705 161.101 102.684C161.165 102.641 161.086 99.8577 160.746 90.4005C160.71 89.3639 160.625 86.9073 160.561 84.9335L160.447 81.348L160.675 79.8002C160.795 78.9411 160.888 78.2311 160.873 78.2169C160.845 78.1956 156.954 77.7057 155.172 77.4998L154.675 77.443L154.554 76.8395C153.972 73.9427 153.504 71.4222 153.504 71.1808C153.504 70.9039 153.518 70.8897 153.894 70.698C155.051 70.1371 156.976 67.4888 158.083 64.947C158.736 63.4489 159.915 60.7722 160.944 58.4505C163.337 53.0545 163.387 52.8983 163.593 49.256C163.706 47.2467 163.848 45.3155 163.891 45.2729C163.912 45.2516 164.097 45.3723 164.303 45.5427C164.516 45.7131 165.119 46.1817 165.645 46.5935C166.17 46.9982 166.809 47.4952 167.065 47.694C167.32 47.8999 167.718 48.2052 167.952 48.3756C168.762 48.9649 169.692 50.0157 170.487 51.244C170.657 51.5138 170.842 51.8475 170.884 51.9824C171.154 52.7563 170.728 54.5384 169.77 56.6542C168.911 58.557 168.847 60.7225 169.592 63.0726C170.132 64.7908 171.062 66.2818 172.532 67.787C172.993 68.2556 173.476 68.8165 173.611 69.0295C174.307 70.1158 174.924 71.6636 175.372 73.4315C175.656 74.5746 175.791 76.7401 175.847 81.135C175.897 85.3098 175.862 85.5938 175.144 86.602C175.01 86.8008 174.754 87.1984 174.591 87.4895C174.044 88.4338 172.361 89.939 169.748 91.8063L168.705 92.5518L168.918 92.8429C169.038 93.0062 169.251 93.3044 169.393 93.5032C169.599 93.7943 169.685 93.8653 169.791 93.8369C169.869 93.8085 170.629 93.4748 171.481 93.0914C172.34 92.7009 173.05 92.3885 173.064 92.3885C173.078 92.3885 173.078 92.495 173.057 92.6228C173.043 92.7435 173 93.2973 172.965 93.8511L172.901 94.8451L172.581 95.3421C171.949 96.3219 171.68 97.039 171.68 97.7348C171.68 98.2673 171.822 98.6294 172.155 98.9844L172.461 99.2968L172.326 100.511C172.248 101.178 172.148 102.222 172.106 102.826C171.893 105.815 171.58 106.731 170.238 108.307C169.649 109.003 169.393 109.514 169.379 110.032C169.372 110.387 169.358 110.423 169.209 110.423C169.024 110.423 168.882 110.714 168.932 110.991C168.953 111.09 169.017 111.424 169.081 111.736C169.237 112.51 169.443 114.413 169.628 116.749C169.713 117.821 169.784 118.701 169.791 118.708C169.798 118.715 170.103 118.744 170.48 118.765L171.161 118.822L171.204 118.375C171.232 118.126 171.254 117.217 171.254 116.351C171.254 115.485 171.275 114.576 171.296 114.335L171.346 113.894L171.552 114.093C172.276 114.782 173.306 116.727 173.81 118.339C174.115 119.326 174.285 119.631 174.662 119.908C175.116 120.235 175.499 120.327 176.401 120.32C177.26 120.32 177.693 120.242 178.716 119.937C179.461 119.709 179.894 119.44 180.164 119.028C180.434 118.616 180.491 118.332 180.441 117.686C180.398 117.153 180.377 117.075 180.164 116.855C180.036 116.72 179.667 116.436 179.341 116.223C178.659 115.776 178.382 115.506 177.835 114.732C177.125 113.745 176.983 113.128 176.501 109.003C176.195 106.383 176.174 105.744 176.366 104.814C176.451 104.402 176.671 103.607 176.856 103.039L177.189 102.009L177.594 101.817C178.325 101.462 178.418 101.079 178.098 99.8222C177.793 98.6365 177.921 97.9478 178.758 96.2651C179.326 95.1291 179.83 94.3552 180.505 93.5742C180.938 93.0701 181.236 92.637 181.556 92.0264C181.797 91.5649 182.237 90.8691 182.521 90.4928C182.812 90.1094 183.345 89.3852 183.7 88.874C184.367 87.9368 184.559 87.7309 187.676 84.6708C189.117 83.2508 189.657 82.7751 191.347 81.4403C192.596 80.4463 192.909 80.1978 193.434 79.7647C193.597 79.6298 194.613 78.6571 195.699 77.6063C196.785 76.5484 197.815 75.5899 197.992 75.4763C199.242 74.6882 200.08 73.2114 200.08 71.8056C200.08 71.1453 199.569 70.2223 198.724 69.3348C198.007 68.5964 197.304 67.9645 196.494 67.3539C195.458 66.5729 194.499 65.9268 193.328 65.231C192.689 64.8476 192.007 64.4358 191.808 64.308C191.617 64.1802 190.765 63.6477 189.927 63.1223C185.56 60.3888 183.38 58.9475 183.182 58.6635C182.954 58.344 182.763 57.7405 182.649 56.9737C182.543 56.2353 182.472 54.3751 182.557 54.297C182.585 54.2686 183.409 54.1905 184.389 54.1195L186.171 53.9917L186.434 54.2615L186.696 54.5313L187.917 54.3609C188.585 54.2686 189.629 54.1337 190.225 54.0556C191.808 53.8497 193.931 53.5657 195.074 53.4095C195.621 53.3385 196.374 53.2391 196.743 53.1894C197.112 53.1468 197.495 53.0616 197.595 53.019C197.694 52.9693 198.475 52.4936 199.334 51.9611C200.193 51.4286 200.925 50.9884 200.953 50.9742C200.981 50.9671 200.776 50.4488 200.484 49.824C200.193 49.1992 199.789 48.3188 199.583 47.8715C199.377 47.4242 199.05 46.7213 198.866 46.3166C198.674 45.9119 198.518 45.5782 198.518 45.564C198.518 45.5569 198.369 45.2303 198.191 44.8469C198.007 44.4635 197.68 43.7464 197.453 43.2565C197.226 42.7666 196.551 41.2969 195.948 39.9905C195.337 38.6841 194.783 37.47 194.698 37.2925C194.62 37.115 194.4 36.6393 194.208 36.2275C194.016 35.8157 193.526 34.7578 193.122 33.8774L192.383 32.2799L190.523 31.9746L188.663 31.6622L188.635 31.2646C188.613 30.9806 188.514 30.6895 188.301 30.2493C188.088 29.8162 188.01 29.5819 188.045 29.4754C188.074 29.3902 188.074 29.0139 188.045 28.6447L187.996 27.9631L187.555 27.53C187.257 27.2318 186.923 26.9975 186.505 26.7774C186.157 26.607 185.88 26.4295 185.88 26.3869C185.88 26.3443 185.929 26.1668 185.986 26.0035C186.043 25.8402 186.093 25.6769 186.093 25.6414C186.093 25.5065 185.709 25.5846 185.319 25.7905C184.744 26.1029 183.522 27.0401 183.402 27.2602C183.324 27.4093 183.317 27.6223 183.352 28.2045C183.423 29.3618 183.53 29.6884 184.027 30.3203C184.992 31.5557 185.255 31.9036 185.234 31.9178C185.219 31.932 184.488 32.0598 183.622 32.1947C182.749 32.3367 182.024 32.4645 182.01 32.4787C181.982 32.5 181.868 34.4667 181.762 36.76C181.648 39.2876 181.613 39.6426 181.527 39.6142C181.222 39.5148 180.512 37.5836 180.022 35.5388C179.823 34.7081 179.525 34.1543 178.872 33.4088C178.375 32.8408 177.452 32.0172 176.536 31.3285C176.167 31.0445 175.876 30.796 175.897 30.7747C175.975 30.7037 175.72 30.2493 175.457 29.9653L175.173 29.6742L174.96 29.8233C174.711 30.0008 174.463 30.0292 174.406 29.8801C174.349 29.7239 174.555 28.9855 174.868 28.2542C175.024 27.885 175.187 27.3809 175.223 27.1324C175.322 26.536 175.322 24.8817 175.223 23.6321C175.123 22.3825 175.18 22.0843 175.741 20.9554C176.202 20.0111 176.231 19.8265 176.053 18.8183C175.592 16.2339 173.852 14.7358 170.65 14.1749C169.834 14.0329 168.499 14.0542 167.881 14.2175ZM185.276 71.3228C186.277 71.6352 188.883 72.1251 191.049 72.4091C191.567 72.473 191.964 72.5511 191.936 72.5795C191.908 72.6008 191.595 72.7286 191.24 72.8564C189.43 73.5238 187.527 74.9438 186.064 76.7259C185.269 77.6915 184.744 78.508 184.083 79.8215C183.778 80.425 183.515 80.9291 183.501 80.9433C183.494 80.9575 183.508 80.8155 183.544 80.638C183.764 79.4523 184.055 75.6893 184.14 72.828C184.161 72.0825 184.197 71.3441 184.218 71.1808L184.254 70.8826L184.481 71.0175C184.609 71.0885 184.964 71.2234 185.276 71.3228ZM150.877 71.763C150.877 71.8198 150.685 72.4659 150.444 73.1972C150.025 74.4965 149.521 76.0656 149.371 76.5342C149.329 76.6975 149.258 76.7685 149.166 76.7685C149.052 76.7685 149.031 76.7401 149.073 76.6052C149.116 76.4561 150.117 73.396 150.507 72.2032C150.614 71.8837 150.728 71.6565 150.784 71.6565C150.834 71.6565 150.877 71.7062 150.877 71.763ZM153.142 72.3665C153.553 74.39 154.086 77.2726 154.05 77.3081C154.001 77.3578 149.968 76.875 149.904 76.8111C149.876 76.7898 149.975 76.4064 150.11 75.9662C150.252 75.5331 150.586 74.4823 150.855 73.6445L151.345 72.118L151.842 72.0825C152.112 72.0612 152.495 72.0399 152.701 72.047H153.071L153.142 72.3665Z" fill="#F55555" fill-opacity="0.4"/>
<path d="M120.04 37.2269C120.168 37.3547 120.288 37.4399 120.31 37.4186C120.331 37.3973 120.231 37.2908 120.082 37.1843L119.812 36.9855L120.04 37.2269Z" fill="#F55555" fill-opacity="0.4"/>
</svg>
