<svg width="24" height="22" viewBox="0 0 24 22" fill="none" xmlns="http://www.w3.org/2000/svg">
<path d="M11.8551 21.3087C11.5262 21.3087 11.2092 21.1887 10.9621 20.9706C10.0288 20.1482 9.12911 19.3755 8.3353 18.6938L8.33124 18.6903C6.00393 16.6917 3.9942 14.9657 2.59587 13.2654C1.03276 11.3647 0.304688 9.56253 0.304688 7.59376C0.304688 5.68094 0.955561 3.91624 2.13728 2.6245C3.33311 1.3175 4.97395 0.597656 6.75808 0.597656C8.09155 0.597656 9.31275 1.02249 10.3877 1.86026C10.9302 2.28314 11.4219 2.80069 11.8551 3.40437C12.2885 2.80069 12.78 2.28314 13.3227 1.86026C14.3976 1.02249 15.6188 0.597656 16.9523 0.597656C18.7362 0.597656 20.3772 1.3175 21.5731 2.6245C22.7548 3.91624 23.4055 5.68094 23.4055 7.59376C23.4055 9.56253 22.6776 11.3647 21.1145 13.2653C19.7162 14.9656 17.7068 16.6913 15.3799 18.6896L15.3796 18.6899C14.5844 19.3726 13.6833 20.1466 12.7479 20.9709C12.501 21.1887 12.1838 21.3087 11.8551 21.3087ZM6.75808 1.96132C5.3564 1.96132 4.06876 2.52504 3.13201 3.54877C2.18135 4.58794 1.65772 6.02443 1.65772 7.59376C1.65772 9.24959 2.26841 10.7305 3.63766 12.3954C4.96082 14.0043 6.92879 15.6944 9.20742 17.6514L9.20877 17.6525L9.213 17.6561C10.0098 18.3404 10.9131 19.1162 11.8532 19.9445C12.7989 19.1146 13.7035 18.3375 14.5019 17.6522L14.5081 17.6469C16.7845 15.6917 18.7505 14.0032 20.0727 12.3954C21.4418 10.7305 22.0525 9.24959 22.0525 7.59376C22.0525 6.02443 21.7567 4.75433 20.5782 3.54877C19.5004 2.44632 18.3538 1.96132 16.9523 1.96132C15.9255 1.96132 14.9827 2.29025 14.1503 2.93887C13.4085 3.51715 12.8918 4.24818 12.5888 4.75969C12.433 5.02273 12.1588 5.17973 11.8551 5.17973C11.5514 5.17973 11.2772 5.02273 11.1214 4.75969C10.8186 4.24818 10.3018 3.51715 9.55985 2.93887C8.72744 2.29025 7.78471 1.96132 6.75808 1.96132Z" fill="white"/>
<path d="M11.8551 21.3087C11.5262 21.3087 11.2092 21.1887 10.9621 20.9706C10.0288 20.1482 9.12911 19.3755 8.3353 18.6938L8.33124 18.6903C6.00393 16.6917 3.9942 14.9657 2.59587 13.2654C1.03276 11.3647 0.304688 9.56253 0.304688 7.59376C0.304688 5.68094 0.955561 3.91624 2.13728 2.6245C3.33311 1.3175 4.97395 0.597656 6.75808 0.597656C8.09155 0.597656 9.31275 1.02249 10.3877 1.86026C10.9302 2.28314 11.4219 2.80069 11.8551 3.40437C12.2885 2.80069 12.78 2.28314 13.3227 1.86026C14.3976 1.02249 15.6188 0.597656 16.9523 0.597656C18.7362 0.597656 20.3772 1.3175 21.5731 2.6245C22.7548 3.91624 23.4055 5.68094 23.4055 7.59376C23.4055 9.56253 22.6776 11.3647 21.1145 13.2653C19.7162 14.9656 17.7068 16.6913 15.3799 18.6896L15.3796 18.6899C14.5844 19.3726 13.6833 20.1466 12.7479 20.9709C12.501 21.1887 12.1838 21.3087 11.8551 21.3087ZM6.75808 1.96132C5.3564 1.96132 4.06876 2.52504 3.13201 3.54877C2.18135 4.58794 1.65772 6.02443 1.65772 7.59376C1.65772 9.24959 2.26841 10.7305 3.63766 12.3954C4.96082 14.0043 6.92879 15.6944 9.20742 17.6514L9.20877 17.6525L9.213 17.6561C10.0098 18.3404 10.9131 19.1162 11.8532 19.9445C12.7989 19.1146 13.7035 18.3375 14.5019 17.6522L14.5081 17.6469C16.7845 15.6917 18.7505 14.0032 20.0727 12.3954C21.4418 10.7305 22.0525 9.24959 22.0525 7.59376C22.0525 6.02443 21.7567 4.75433 20.5782 3.54877C19.5004 2.44632 18.3538 1.96132 16.9523 1.96132C15.9255 1.96132 14.9827 2.29025 14.1503 2.93887C13.4085 3.51715 12.8918 4.24818 12.5888 4.75969C12.433 5.02273 12.1588 5.17973 11.8551 5.17973C11.5514 5.17973 11.2772 5.02273 11.1214 4.75969C10.8186 4.24818 10.3018 3.51715 9.55985 2.93887C8.72744 2.29025 7.78471 1.96132 6.75808 1.96132Z" stroke="white"/>
</svg>
