<svg width="54" height="55" viewBox="0 0 54 55" fill="none" xmlns="http://www.w3.org/2000/svg">
<path d="M48.1521 0.202952C47.515 0.336772 46.2973 0.873251 44.6902 1.72926C41.4644 3.44756 38.8377 5.46308 36.4021 8.07243C35.0339 9.53829 33.9966 10.8691 33.0651 12.367C32.8307 12.74 32.6594 12.7224 31.3404 12.2028C28.3198 10.9943 26.2085 10.5432 23.9858 10.6199C22.3805 10.6753 21.2369 10.9737 20.0358 11.6509C18.5171 12.5097 18.5299 13.563 20.0676 14.6225C20.5683 14.9702 20.9505 15.4692 21.2569 16.1591C21.8061 17.4058 21.9963 18.653 22.0207 21.2364C22.0284 22.1427 22.0349 22.1601 22.205 22.4839C22.5132 23.056 23.0284 23.1442 23.7744 22.7535C24.127 22.5647 24.6635 22.0753 27.8081 19.0294C29.808 17.1003 31.5178 15.4696 31.616 15.4132C32.0947 15.126 32.1204 15.3605 31.6936 16.1287C30.4307 18.4269 29.6561 21.4027 29.5012 24.5927C29.4463 25.7307 29.4609 27.1783 29.5394 28.088L29.6154 28.9272L29.0943 29.6928C28.2813 30.8687 27.3786 32.3479 25.9065 34.9005C23.7013 38.7263 22.7577 40.2128 21.3331 42.0927C20.1676 43.634 19.2757 44.4006 17.9482 44.9997C16.8527 45.4966 15.7847 45.7689 13.2855 46.1907C9.88497 46.7671 7.98732 47.2211 5.78269 47.9917C3.49676 48.7946 1.3998 49.956 0.901415 50.6972C0.54841 51.2157 0.662366 51.6179 1.25748 51.9741C1.87672 52.3472 3.43049 52.8469 5.01994 53.1865C9.37914 54.1192 13.5433 54.5172 17.9552 54.418C21.9731 54.3323 23.5761 54.0416 25.3854 53.0726C27.6861 51.8454 29.2496 49.5546 29.8127 46.5919C29.9475 45.8926 29.9469 45.875 29.8708 43.3287C29.8041 41.0529 29.8083 40.6642 29.8961 39.7959C30.4521 34.2374 32.3497 30.0278 35.6439 27.0533C36.7228 26.0743 39.0205 24.5881 40.452 23.9324C41.0374 23.665 41.7187 23.4472 42.2511 23.3524C43.3746 23.1547 44.1634 23.4924 44.6174 24.3656C44.9073 24.9207 45.0355 25.5638 45.0738 26.6751C45.1983 29.9437 45.0793 32.9794 44.5072 40.9696C44.2491 44.581 43.8288 50.1466 43.7798 50.6015L43.7532 50.8556L44.2471 50.8385L44.7411 50.8215L44.959 48.2651C45.1792 45.7734 45.5127 41.9591 45.9395 37.0939C46.2401 33.6929 46.5329 31.5989 47.0501 29.1852C47.9581 24.9568 49.3626 21.2999 51.0631 18.7159C51.6059 17.8966 52.4529 16.849 52.9494 16.3963C53.3604 16.023 53.6179 15.6374 53.6102 15.4139C53.5962 15.0083 53.274 14.5426 52.8421 14.3102C51.8764 13.7902 49.8313 13.8961 48.1295 14.567C46.7994 15.0897 44.7694 16.1427 43.0575 17.2025C42.556 17.5141 42.1233 17.7704 42.0939 17.7714C42.0645 17.7724 41.7993 17.5932 41.5092 17.3736C40.8986 16.912 39.3706 15.964 38.5614 15.5445C37.8122 15.1583 36.2043 14.4544 35.4056 14.17C34.8571 13.9711 34.6951 13.8825 34.4035 13.6218C34.039 13.2929 33.9558 13.1015 34.1462 12.989C34.204 12.9576 34.4727 12.8953 34.7417 12.8448C36.0003 12.6366 37.9156 12.182 39.5006 11.7094C43.4169 10.5559 46.6447 9.06715 49.2366 7.23532C50.0756 6.64126 50.5032 6.238 50.6113 5.9576C50.7354 5.62956 50.6818 5.10162 50.4296 4.27442C50.3033 3.85495 50.0153 2.84651 49.7931 2.03594C49.5707 1.21949 49.3578 0.508671 49.3261 0.445011C49.1698 0.17962 48.7132 0.0835262 48.1521 0.202952ZM46.7584 1.61083C46.9599 1.82167 46.9889 1.97961 46.8557 2.21379C46.1395 3.46878 37.9989 9.81864 35.0747 11.4029C34.439 11.7486 34.2064 11.8332 34.1446 11.747C34.0888 11.6665 35.0215 10.5453 36.3206 9.12305C39.7242 5.39129 42.991 2.81802 45.7202 1.72316C46.3822 1.45897 46.5876 1.44012 46.7584 1.61083ZM33.087 13.002C33.1774 13.0636 33.3175 13.2001 33.392 13.3093C33.5894 13.5733 33.585 14.1268 33.3881 14.3926C33.0118 14.9177 32.3492 14.9936 31.8929 14.5678C31.4183 14.1191 31.4882 13.4162 32.0452 13.0085C32.2058 12.8852 32.2993 12.8643 32.5821 12.8722C32.8003 12.8824 32.9785 12.9292 33.087 13.002ZM52.1797 14.3919C53.4589 14.6127 53.3817 15.2747 51.9628 16.2949C50.7221 17.1912 48.4315 18.371 46.1382 19.3037C45.8422 19.4258 45.3201 19.6498 44.9782 19.8088L44.3639 20.089L44.0869 19.7394C43.933 19.5446 43.5358 19.1227 43.1947 18.793C42.8596 18.4632 42.6025 18.1777 42.6252 18.1534C42.7333 18.0437 44.6816 16.8404 45.5478 16.3514C46.6508 15.7305 47.2297 15.4457 48.1356 15.0848C49.6861 14.4662 51.1669 14.215 52.1797 14.3919ZM30.7646 15.3072C30.7682 15.4131 30.3258 15.8992 28.9955 17.2696C25.8795 20.4617 24.3924 21.8963 23.8506 22.2329C23.2628 22.6004 22.9745 22.4338 22.9558 21.7222C22.9437 21.3694 22.9646 21.2921 23.143 21.0034C23.8904 19.8003 25.9151 18.0823 28.8 16.2109C30.5275 15.0917 30.7534 14.9839 30.7646 15.3072ZM33.2454 15.3747C33.9344 16.0632 34.9504 19.2363 35.2773 21.7151C35.3312 22.0841 35.3805 22.4886 35.3965 22.6116C35.4274 22.8225 35.4105 22.8466 34.9482 23.2687C34.6798 23.5076 34.4565 23.6919 34.4444 23.6805C34.4322 23.6692 34.3136 23.4731 34.1706 23.2543C33.1992 21.7161 32.5761 19.0121 32.5986 16.4213C32.6042 15.3909 32.6511 15.2127 32.9157 15.2036C33.0098 15.2003 33.1357 15.2666 33.2454 15.3747ZM43.1311 20.7025C43.0741 20.7574 42.7327 20.9281 42.7319 20.9046C42.7304 20.8635 43.0305 20.6883 43.1009 20.68C43.1303 20.679 43.1424 20.6903 43.1311 20.7025ZM42.5591 21.0165C42.5595 21.0283 42.5194 21.0591 42.467 21.0786C42.4206 21.0978 42.3969 21.0928 42.4133 21.0569C42.4466 20.9969 42.5575 20.9695 42.5591 21.0165ZM42.1029 21.2736C41.9705 21.3606 41.8375 21.4299 41.814 21.4308C41.755 21.4269 42.2331 21.122 42.2977 21.1197C42.333 21.1185 42.2412 21.1864 42.1029 21.2736ZM35.4878 23.721C35.5091 23.8263 35.5352 24.414 35.5446 25.0259L35.5535 26.1382L34.6914 27.0862C33.1995 28.7211 32.4971 29.6931 31.2584 31.8432C30.3533 33.4226 29.8373 34.5059 29.5461 35.4519C29.1704 36.6775 28.9152 38.152 28.7597 39.9587C28.593 41.9541 28.0155 43.3044 26.7491 44.649C25.92 45.5312 25.1442 46.0818 23.537 46.932C22.1839 47.6438 21.7946 47.7926 20.7764 47.969C18.1603 48.4183 13.6971 48.3957 13.2867 47.933C13.1951 47.8361 13.2237 47.4702 13.3307 47.3311C13.4662 47.1616 13.8317 47.0077 15.2454 46.5175C17.4387 45.759 18.6664 45.1692 19.9651 44.2473C21.2753 43.3191 21.9657 42.3417 24.7042 37.5909C27.8981 32.0474 29.2312 30.0765 31.701 27.2659C32.6814 26.1607 35.27 23.552 35.4107 23.5353C35.4343 23.5345 35.4667 23.6217 35.4878 23.721Z" fill="#E31F1F"/>
</svg>
