<svg width="26" height="26" viewBox="0 0 26 26" fill="none" xmlns="http://www.w3.org/2000/svg">
<g clip-path="url(#clip0_2663_4462)">
<path d="M1.43068 0.990417C1.33782 1.01264 1.25116 1.06661 1.14592 1.16819C0.916869 1.39677 0.870441 1.66026 1.00354 1.9555C1.07163 2.10788 1.20163 2.23804 1.34711 2.3047C1.38116 2.32058 2.11782 2.33962 2.98449 2.34915L4.56306 2.36502L4.67758 2.85708C4.73949 3.12692 5.00877 4.3047 5.27806 5.47613C5.75782 7.57137 6.53473 10.9777 7.28997 14.2698C7.50354 15.1968 7.67687 15.9714 7.67687 15.9904C7.67687 16.0063 7.54687 16.0857 7.39211 16.165C6.82878 16.4444 6.39854 16.8857 6.13544 17.4539C5.67735 18.4444 5.85068 19.6444 6.56877 20.4285L6.75449 20.6349L6.62758 20.7777C6.13854 21.3238 5.89401 22.1333 6.00544 22.8571C6.16639 23.9015 6.89068 24.7079 7.90901 24.9682C8.21854 25.0476 8.7602 25.0412 9.08211 24.9555C9.95187 24.7206 10.6328 24.0222 10.8681 23.1269C10.9981 22.6317 10.9454 21.9428 10.7443 21.4761L10.6823 21.3333H15.1983H19.7143L19.64 21.5174C19.5007 21.8666 19.4604 22.092 19.4604 22.492C19.4604 22.9396 19.5254 23.2349 19.7204 23.6349C20.1693 24.5714 21.1845 25.1333 22.2059 25.0158C23.2304 24.8952 24.0507 24.1682 24.3323 23.1269C24.4221 22.8031 24.4314 22.2158 24.3509 21.9079C24.1404 21.1047 23.6638 20.5079 22.9612 20.1745C22.4566 19.9365 23.15 19.9587 15.2757 19.9396C8.40425 19.9206 8.21544 19.9174 8.07925 19.8603C7.75735 19.7174 7.49735 19.4698 7.34878 19.1587C7.2652 18.9841 7.25901 18.9396 7.25901 18.619C7.25901 18.292 7.2652 18.2571 7.35806 18.0571C7.54068 17.6634 7.9152 17.3714 8.32997 17.3015C8.46306 17.2825 10.6452 17.2698 14.8176 17.2698C19.2593 17.2698 21.1566 17.2603 21.2712 17.2349C21.754 17.1333 22.24 16.7428 22.4473 16.2857C22.5247 16.1206 22.6207 15.7809 22.7631 15.1904C22.9735 14.2984 23.3326 12.8031 23.7288 11.1428C23.8557 10.6095 24.0321 9.88248 24.1157 9.52375C24.2023 9.16502 24.4469 8.15232 24.6573 7.26978C24.8709 6.38724 25.0504 5.57772 25.0628 5.46978C25.1278 4.79359 24.6728 4.11105 24.0228 3.9047C23.8309 3.84121 23.6854 3.84121 15.0559 3.84121C10.2304 3.84121 6.28401 3.83486 6.28401 3.82534C6.28401 3.81581 6.15711 3.26343 6.00544 2.59359C5.69282 1.23804 5.67735 1.19359 5.40187 1.05073L5.2502 0.968195L3.40544 0.961845C2.29116 0.958672 1.51116 0.971369 1.43068 0.990417ZM23.6607 5.25708C23.6885 5.28248 23.7102 5.32693 23.7102 5.34915C23.7102 5.38724 23.3604 6.88565 23.2738 7.21264L23.2428 7.33327H15.1673C10.7226 7.33327 7.08877 7.3301 7.08877 7.32375C7.08877 7.3174 6.98354 6.86343 6.85663 6.3174C6.72973 5.76819 6.62449 5.292 6.62449 5.26026C6.62449 5.20947 7.04854 5.20629 15.1178 5.20629C22.8002 5.20629 23.6173 5.21264 23.6607 5.25708ZM22.9054 8.7428C22.9054 8.75867 22.7043 9.60946 22.2121 11.6666C22.0357 12.3999 21.7478 13.5999 21.5714 14.3333C21.2712 15.5999 21.2495 15.673 21.1535 15.7682L21.0545 15.873H15.0528H9.05116L8.2402 12.3238C7.79449 10.3745 7.42925 8.7682 7.42925 8.75232C7.42925 8.7301 22.9054 8.72058 22.9054 8.7428ZM8.92116 21.4349C9.83735 21.8666 9.79711 23.1809 8.85925 23.5682C8.65806 23.6507 8.29901 23.6539 8.09473 23.5745C7.73568 23.4349 7.50663 23.1841 7.3952 22.8126C7.21258 22.2095 7.54068 21.5809 8.15044 21.3777C8.35163 21.3111 8.71068 21.3365 8.92116 21.4349ZM22.4009 21.4444C22.6362 21.5491 22.8435 21.7682 22.9612 22.0253C23.0323 22.1809 23.0447 22.2476 23.0447 22.492C23.0447 22.8539 22.9581 23.0666 22.7073 23.3174C22.4814 23.5428 22.2647 23.6285 21.9304 23.6317C21.7138 23.6317 21.6519 23.619 21.4723 23.5333C21.1381 23.3714 20.9152 23.0888 20.8316 22.7238C20.7852 22.5174 20.7945 22.3777 20.8626 22.1491C21.0638 21.4825 21.7757 21.1555 22.4009 21.4444Z" fill="#333333"/>
</g>
<defs>
<clipPath id="clip0_2663_4462">
<rect width="26" height="26" fill="white"/>
</clipPath>
</defs>
</svg>
