<svg width="25" height="22" viewBox="0 0 25 22" fill="none" xmlns="http://www.w3.org/2000/svg">
<path d="M12.0094 21.6943C11.6674 21.6943 11.3377 21.5686 11.0808 21.3401C10.1105 20.4787 9.17505 19.6693 8.3497 18.9553L8.34549 18.9515C5.9257 16.8581 3.83612 15.0501 2.38223 13.2692C0.756998 11.2782 0 9.39048 0 7.32824C0 5.32461 0.676735 3.47613 1.90541 2.12307C3.14875 0.754014 4.85479 0 6.70981 0C8.09627 0 9.366 0.445004 10.4836 1.32255C11.0477 1.7655 11.5589 2.30762 12.0094 2.93997C12.46 2.30762 12.971 1.7655 13.5353 1.32255C14.6529 0.445004 15.9226 0 17.3091 0C19.1639 0 20.8701 0.754014 22.1135 2.12307C23.3421 3.47613 24.0187 5.32461 24.0187 7.32824C24.0187 9.39048 23.2619 11.2782 21.6367 13.269C20.1828 15.05 18.0936 16.8577 15.6743 18.9509L15.6739 18.9512C14.8471 19.6663 13.9102 20.4771 12.9377 21.3405C12.681 21.5686 12.3511 21.6943 12.0094 21.6943ZM6.70981 1.4284C5.25244 1.4284 3.91363 2.01889 2.93967 3.09121C1.95123 4.17973 1.4068 5.6844 1.4068 7.32824C1.4068 9.06268 2.04175 10.6139 3.46541 12.3578C4.84115 14.0432 6.88732 15.8135 9.2565 17.8633L9.25788 17.8645L9.26228 17.8682C10.0907 18.5851 11.0299 19.3977 12.0073 20.2654C12.9906 19.396 13.9313 18.5821 14.7614 17.8642L14.7678 17.8586C17.1346 15.8106 19.1787 14.042 20.5535 12.3578C21.977 10.6139 22.6119 9.06268 22.6119 7.32824C22.6119 5.6844 22.3044 4.35401 21.079 3.09121C19.9585 1.93643 18.7663 1.4284 17.3091 1.4284C16.2415 1.4284 15.2613 1.77295 14.3958 2.45236C13.6245 3.0581 13.0872 3.82383 12.7722 4.35962C12.6102 4.63515 12.3251 4.79961 12.0094 4.79961C11.6936 4.79961 11.4085 4.63515 11.2465 4.35962C10.9317 3.82383 10.3944 3.0581 9.62291 2.45236C8.75743 1.77295 7.77724 1.4284 6.70981 1.4284Z" fill="#333333"/>
<path d="M12.0094 21.6943C11.6674 21.6943 11.3377 21.5686 11.0808 21.3401C10.1105 20.4787 9.17505 19.6693 8.3497 18.9553L8.34549 18.9515C5.9257 16.8581 3.83612 15.0501 2.38223 13.2692C0.756998 11.2782 0 9.39048 0 7.32824C0 5.32461 0.676735 3.47613 1.90541 2.12307C3.14875 0.754014 4.85479 0 6.70981 0C8.09627 0 9.366 0.445004 10.4836 1.32255C11.0477 1.7655 11.5589 2.30762 12.0094 2.93997C12.46 2.30762 12.971 1.7655 13.5353 1.32255C14.6529 0.445004 15.9226 0 17.3091 0C19.1639 0 20.8701 0.754014 22.1135 2.12307C23.3421 3.47613 24.0187 5.32461 24.0187 7.32824C24.0187 9.39048 23.2619 11.2782 21.6367 13.269C20.1828 15.05 18.0936 16.8577 15.6743 18.9509L15.6739 18.9512C14.8471 19.6663 13.9102 20.4771 12.9377 21.3405C12.681 21.5686 12.3511 21.6943 12.0094 21.6943ZM6.70981 1.4284C5.25244 1.4284 3.91363 2.01889 2.93967 3.09121C1.95123 4.17973 1.4068 5.6844 1.4068 7.32824C1.4068 9.06268 2.04175 10.6139 3.46541 12.3578C4.84115 14.0432 6.88732 15.8135 9.2565 17.8633L9.25788 17.8645L9.26228 17.8682C10.0907 18.5851 11.0299 19.3977 12.0073 20.2654C12.9906 19.396 13.9313 18.5821 14.7614 17.8642L14.7678 17.8586C17.1346 15.8106 19.1787 14.042 20.5535 12.3578C21.977 10.6139 22.6119 9.06268 22.6119 7.32824C22.6119 5.6844 22.3044 4.35401 21.079 3.09121C19.9585 1.93643 18.7663 1.4284 17.3091 1.4284C16.2415 1.4284 15.2613 1.77295 14.3958 2.45236C13.6245 3.0581 13.0872 3.82383 12.7722 4.35962C12.6102 4.63515 12.3251 4.79961 12.0094 4.79961C11.6936 4.79961 11.4085 4.63515 11.2465 4.35962C10.9317 3.82383 10.3944 3.0581 9.62291 2.45236C8.75743 1.77295 7.77724 1.4284 6.70981 1.4284Z" stroke="#333333"/>
</svg>
