<svg width="42" height="43" viewBox="0 0 42 43" fill="none" xmlns="http://www.w3.org/2000/svg">
<path d="M37.6427 0.162182C37.1419 0.267389 36.1845 0.689148 34.9211 1.36211C32.3851 2.71298 30.3201 4.2975 28.4053 6.34888C27.3297 7.50128 26.5142 8.54753 25.7819 9.72511C25.5976 10.0184 25.4629 10.0045 24.426 9.59603C22.0513 8.64594 20.3914 8.29132 18.644 8.35159C17.382 8.39512 16.483 8.62976 15.5387 9.16213C14.3448 9.83733 14.3548 10.6654 15.5637 11.4983C15.9573 11.7717 16.2578 12.1639 16.4987 12.7063C16.9305 13.6864 17.08 14.667 17.0992 16.6979C17.1052 17.4104 17.1103 17.4241 17.2441 17.6786C17.4864 18.1284 17.8914 18.1978 18.4779 17.8906C18.7551 17.7422 19.1768 17.3574 21.649 14.9629C23.2212 13.4463 24.5655 12.1643 24.6426 12.12C25.019 11.8941 25.0392 12.0785 24.7037 12.6825C23.7108 14.4892 23.1019 16.8287 22.9801 19.3365C22.9369 20.2312 22.9484 21.3692 23.0101 22.0844L23.0699 22.7441L22.6602 23.346C22.021 24.2705 21.3113 25.4334 20.1541 27.4401C18.4204 30.4478 17.6786 31.6165 16.5586 33.0944C15.6423 34.3061 14.9411 34.9087 13.8975 35.3797C13.0363 35.7704 12.1967 35.9845 10.2319 36.316C7.5585 36.7692 6.06663 37.1261 4.33344 37.732C2.53632 38.3632 0.887765 39.2762 0.495953 39.8589C0.218434 40.2665 0.308022 40.5827 0.775875 40.8628C1.2627 41.1561 2.48422 41.5489 3.73379 41.8159C7.16083 42.5492 10.4345 42.862 13.903 42.784C17.0618 42.7167 18.322 42.4882 19.7444 41.7264C21.5531 40.7616 22.7823 38.9606 23.2249 36.6315C23.3309 36.0817 23.3304 36.0679 23.2706 34.0661C23.2182 32.2769 23.2215 31.9714 23.2905 31.2887C23.7276 26.9189 25.2194 23.6094 27.8093 21.271C28.6574 20.5013 30.4638 19.3329 31.5892 18.8174C32.0494 18.6072 32.585 18.436 33.0036 18.3614C33.8868 18.206 34.5069 18.4715 34.8638 19.158C35.0918 19.5944 35.1925 20.1 35.2227 20.9736C35.3206 23.5433 35.227 25.9298 34.7772 32.2114C34.5743 35.0506 34.2439 39.426 34.2053 39.7837L34.1845 39.9834L34.5728 39.97L34.9611 39.9566L35.1324 37.9469C35.3055 35.988 35.5677 32.9894 35.9032 29.1645C36.1396 26.4907 36.3698 24.8445 36.7764 22.947C37.4902 19.6227 38.5944 16.7478 39.9313 14.7164C40.358 14.0723 41.0238 13.2487 41.4142 12.8928C41.7373 12.5993 41.9397 12.2962 41.9337 12.1205C41.9227 11.8016 41.6694 11.4355 41.3299 11.2528C40.5706 10.844 38.9629 10.9272 37.625 11.4546C36.5793 11.8656 34.9833 12.6935 33.6375 13.5266C33.2433 13.7716 32.9031 13.9731 32.88 13.9739C32.8569 13.9747 32.6484 13.8338 32.4203 13.6612C31.9403 13.2982 30.739 12.5529 30.1029 12.2232C29.5139 11.9195 28.2498 11.3662 27.6219 11.1425C27.1907 10.9862 27.0633 10.9165 26.8341 10.7116C26.5475 10.453 26.4821 10.3026 26.6318 10.2141C26.6772 10.1894 26.8885 10.1405 27.1 10.1008C28.0894 9.93707 29.5951 9.57969 30.8412 9.20814C33.9201 8.30133 36.4576 7.13089 38.4953 5.69077C39.1549 5.22375 39.4911 4.90672 39.576 4.68628C39.6736 4.42839 39.6315 4.01333 39.4332 3.36303C39.3339 3.03325 39.1075 2.24045 38.9328 1.60321C38.7579 0.961351 38.5906 0.402531 38.5657 0.352482C38.4428 0.143841 38.0838 0.068296 37.6427 0.162182ZM36.547 1.269C36.7055 1.43477 36.7283 1.55893 36.6235 1.74303C36.0605 2.72966 29.6606 7.72168 27.3617 8.96719C26.862 9.23896 26.6791 9.30543 26.6305 9.23769C26.5867 9.17441 27.3199 8.29297 28.3412 7.17484C31.017 4.24107 33.5853 2.21805 35.7309 1.35731C36.2513 1.14962 36.4128 1.1348 36.547 1.269ZM25.7991 10.2243C25.8702 10.2728 25.9803 10.38 26.0388 10.466C26.1941 10.6735 26.1906 11.1086 26.0358 11.3176C25.74 11.7304 25.219 11.79 24.8604 11.4553C24.4872 11.1026 24.5422 10.55 24.9801 10.2294C25.1063 10.1325 25.1798 10.1161 25.4022 10.1223C25.5737 10.1303 25.7138 10.1671 25.7991 10.2243ZM40.8091 11.317C41.8148 11.4906 41.754 12.011 40.6385 12.8131C39.6631 13.5178 37.8624 14.4453 36.0595 15.1785C35.8268 15.2745 35.4163 15.4506 35.1476 15.5755L34.6646 15.7958L34.4468 15.5211C34.3258 15.3679 34.0135 15.0362 33.7454 14.777C33.4819 14.5177 33.2798 14.2933 33.2977 14.2742C33.3826 14.1879 34.9143 13.2419 35.5953 12.8575C36.4625 12.3694 36.9175 12.1455 37.6298 11.8617C38.8487 11.3754 40.0129 11.1779 40.8091 11.317ZM23.9733 12.0366C23.9762 12.1198 23.6283 12.502 22.5825 13.5794C20.1328 16.0888 18.9637 17.2167 18.5378 17.4813C18.0757 17.7703 17.849 17.6393 17.8343 17.0798C17.8248 16.8025 17.8412 16.7417 17.9815 16.5148C18.569 15.5689 20.1608 14.2182 22.4288 12.747C23.7869 11.8672 23.9645 11.7824 23.9733 12.0366ZM25.9236 12.0897C26.4653 12.6309 27.264 15.1255 27.521 17.0742C27.5634 17.3643 27.6022 17.6823 27.6148 17.7791C27.639 17.9448 27.6258 17.9638 27.2623 18.2957C27.0513 18.4834 26.8758 18.6283 26.8662 18.6194C26.8566 18.6105 26.7634 18.4563 26.651 18.2843C25.8873 17.0751 25.3974 14.9493 25.4151 12.9124C25.4196 12.1024 25.4564 11.9623 25.6644 11.9551C25.7384 11.9526 25.8374 12.0047 25.9236 12.0897ZM33.6954 16.2782C33.6506 16.3214 33.3822 16.4556 33.3815 16.4371C33.3804 16.4047 33.6163 16.267 33.6716 16.2605C33.6947 16.2597 33.7043 16.2686 33.6954 16.2782ZM33.2457 16.5251C33.246 16.5343 33.2145 16.5585 33.1733 16.5738C33.1368 16.589 33.1182 16.585 33.1311 16.5568C33.1572 16.5096 33.2444 16.4881 33.2457 16.5251ZM32.8871 16.7272C32.783 16.7956 32.6784 16.8501 32.6599 16.8507C32.6135 16.8477 32.9894 16.608 33.0402 16.6062C33.068 16.6052 32.9958 16.6586 32.8871 16.7272ZM27.6865 18.6512C27.7032 18.734 27.7238 19.196 27.7311 19.6771L27.7382 20.5515L27.0604 21.2968C25.8875 22.5821 25.3353 23.3463 24.3615 25.0366C23.65 26.2783 23.2443 27.1299 23.0154 27.8736C22.72 28.8371 22.5193 29.9964 22.3971 31.4167C22.2661 32.9854 21.8121 34.047 20.8165 35.1041C20.1647 35.7976 19.5548 36.2305 18.2912 36.8988C17.2275 37.4585 16.9214 37.5755 16.1209 37.7141C14.0643 38.0674 10.5555 38.0496 10.2328 37.6858C10.1608 37.6097 10.1833 37.322 10.2674 37.2126C10.3739 37.0794 10.6613 36.9584 11.7727 36.573C13.4969 35.9767 14.4621 35.513 15.4831 34.7882C16.5132 34.0585 17.0559 33.2901 19.2088 29.5552C21.7197 25.1972 22.7678 23.6477 24.7095 21.4381C25.4802 20.5692 27.5153 18.5183 27.6259 18.5052C27.6444 18.5046 27.6699 18.5731 27.6865 18.6512Z" fill="#E31F1F"/>
</svg>
