<svg width="16" height="15" viewBox="0 0 16 15" fill="none" xmlns="http://www.w3.org/2000/svg">
<g clip-path="url(#clip0_2663_3917)">
<path d="M14.7934 13.6533L11.2626 10.1611C12.1246 9.12109 12.64 7.79395 12.64 6.34375C12.64 3.01855 9.91193 0.320312 6.54999 0.320312C3.18509 0.320312 0.457031 3.01855 0.457031 6.34668C0.457031 9.6748 3.18509 12.373 6.54999 12.373C8.01325 12.373 9.35802 11.8633 10.4096 11.0107L13.9374 14.5C14.1743 14.7344 14.5564 14.7344 14.7934 14.5C15.0304 14.2656 15.0304 13.8877 14.7934 13.6533ZM1.66555 6.34668C1.66555 3.68066 3.85155 1.51855 6.54703 1.51855C9.2425 1.51855 11.4285 3.68066 11.4285 6.34668C11.4285 9.0127 9.2425 11.1748 6.54703 11.1748C3.85155 11.1748 1.66555 9.0127 1.66555 6.34668Z" fill="#333333"/>
</g>
<defs>
<clipPath id="clip0_2663_3917">
<rect width="15.1657" height="15" fill="white" transform="translate(0.132812)"/>
</clipPath>
</defs>
</svg>
