<svg width="30" height="26" viewBox="0 0 30 26" fill="none" xmlns="http://www.w3.org/2000/svg">
<path d="M9.03515 17.0417L12.2238 15.6568L11.3291 16.5536C11.0423 16.8404 10.8817 17.2288 10.8817 17.6315V23.6001C10.8817 24.9667 12.533 25.6297 13.4847 24.6779L16.6856 21.477L23.6609 24.9647C24.5638 25.4161 25.6559 24.8813 25.843 23.8726L29.8227 1.98891C30.0322 0.811449 28.873 -0.140281 27.7647 0.294912L1.9053 10.4162C0.746143 10.8677 0.591589 12.4539 1.64093 13.1229L7.60755 16.9299C8.03461 17.2024 8.57352 17.2451 9.03515 17.0417ZM26.3331 4.13437L23.2074 21.3286L17.0659 18.2598C16.4721 17.9629 15.7644 18.087 15.3068 18.5466L13.9321 19.9213V18.268L20.0472 12.1529C21.2328 10.9673 19.8987 9.01097 18.3613 9.67596L8.56538 13.9262L5.81187 12.1692L26.3331 4.13437Z" fill="white"/>
</svg>
