<svg width="22" height="22" viewBox="0 0 22 22" fill="none" xmlns="http://www.w3.org/2000/svg">
<path d="M18.5173 14.0242C17.3358 12.8428 15.9296 11.9682 14.3953 11.4388C16.0386 10.307 17.1182 8.41282 17.1182 6.27101C17.1182 2.81318 14.305 0 10.8472 0C7.38933 0 4.57614 2.81318 4.57614 6.27101C4.57614 8.41282 5.65573 10.307 7.29903 11.4388C5.76475 11.9682 4.35852 12.8428 3.17707 14.0242C1.12832 16.073 0 18.7969 0 21.6943H1.69487C1.69487 16.6477 5.80056 12.542 10.8472 12.542C15.8938 12.542 19.9994 16.6477 19.9994 21.6943H21.6943C21.6943 18.7969 20.566 16.073 18.5173 14.0242ZM10.8472 10.8472C8.32388 10.8472 6.27101 8.79433 6.27101 6.27101C6.27101 3.74769 8.32388 1.69487 10.8472 1.69487C13.3704 1.69487 15.4233 3.74769 15.4233 6.27101C15.4233 8.79433 13.3704 10.8472 10.8472 10.8472Z" fill="#333333"/>
<path d="M18.5173 14.0242C17.3358 12.8428 15.9296 11.9682 14.3953 11.4388C16.0386 10.307 17.1182 8.41282 17.1182 6.27101C17.1182 2.81318 14.305 0 10.8472 0C7.38933 0 4.57614 2.81318 4.57614 6.27101C4.57614 8.41282 5.65573 10.307 7.29903 11.4388C5.76475 11.9682 4.35852 12.8428 3.17707 14.0242C1.12832 16.073 0 18.7969 0 21.6943H1.69487C1.69487 16.6477 5.80056 12.542 10.8472 12.542C15.8938 12.542 19.9994 16.6477 19.9994 21.6943H21.6943C21.6943 18.7969 20.566 16.073 18.5173 14.0242ZM10.8472 10.8472C8.32388 10.8472 6.27101 8.79433 6.27101 6.27101C6.27101 3.74769 8.32388 1.69487 10.8472 1.69487C13.3704 1.69487 15.4233 3.74769 15.4233 6.27101C15.4233 8.79433 13.3704 10.8472 10.8472 10.8472Z" stroke="white"/>
</svg>
