<svg width="28" height="28" viewBox="0 0 28 28" fill="none" xmlns="http://www.w3.org/2000/svg">
<path fill-rule="evenodd" clip-rule="evenodd" d="M23.7779 4.02402C21.185 1.43106 17.7397 0 14.07 0C6.5065 0 0.347107 6.15491 0.347107 13.7184C0.342621 16.1364 0.975159 18.4961 2.17743 20.5777L0.230469 27.6881L7.5069 25.777C9.50769 26.8716 11.7687 27.4459 14.0656 27.4503H14.07C21.6336 27.4503 27.7885 21.2954 27.793 13.7274C27.793 10.0623 26.3664 6.61697 23.7779 4.02402ZM14.07 25.131H14.0656C12.0199 25.131 10.0101 24.5793 8.26056 23.543L7.84335 23.2962L3.52325 24.4267L4.67618 20.2188L4.40701 19.7881C3.26306 17.9713 2.66193 15.8718 2.66193 13.7184C2.66193 7.43344 7.78055 2.3193 14.0745 2.3193C17.1206 2.3193 19.9827 3.50812 22.136 5.66144C24.2893 7.81925 25.4737 10.6814 25.4737 13.7274C25.4737 20.0169 20.355 25.131 14.07 25.131ZM20.3236 16.5895C19.9827 16.4191 18.2959 15.5891 17.9819 15.477C17.6679 15.3604 17.4391 15.3065 17.2103 15.6475C16.9815 15.9929 16.3265 16.7645 16.1247 16.9933C15.9273 17.2176 15.7254 17.249 15.3845 17.0785C15.039 16.9081 13.9355 16.5447 12.6255 15.3738C11.6072 14.4676 10.9163 13.3416 10.7189 13.0007C10.5171 12.6552 10.6965 12.4713 10.867 12.3008C11.024 12.1483 11.2124 11.9016 11.3829 11.6997C11.5533 11.5023 11.6117 11.3588 11.7283 11.13C11.8405 10.9012 11.7821 10.6993 11.6969 10.5288C11.6117 10.3584 10.9253 8.66711 10.6382 7.98074C10.36 7.31232 10.0774 7.40653 9.86658 7.39307C9.66919 7.38409 9.4404 7.3841 9.21161 7.3841C8.98282 7.3841 8.61047 7.46933 8.29645 7.81476C7.98242 8.1557 7.09866 8.98563 7.09866 10.6724C7.09866 12.3592 8.32785 13.9921 8.49832 14.2209C8.66879 14.4452 10.9163 17.9084 14.3571 19.3933C15.1736 19.7477 15.8106 19.9586 16.3086 20.1156C17.1295 20.3758 17.8787 20.3399 18.4709 20.2547C19.1303 20.156 20.4986 19.4247 20.7857 18.6217C21.0683 17.8232 21.0683 17.1368 20.9831 16.9933C20.8979 16.8497 20.6691 16.7645 20.3236 16.5895Z" fill="white"/>
</svg>
