<svg width="68" height="68" viewBox="0 0 68 68" fill="none" xmlns="http://www.w3.org/2000/svg">
<path d="M48.7367 18.8436L48.7367 18.8436L48.7343 18.8413C48.338 18.4675 47.8154 18.2594 47.2724 18.2594C46.7294 18.2594 46.2068 18.4675 45.8105 18.8413L45.8105 18.8413L45.8082 18.8436L29.0122 35.7777L22.1902 28.899L22.1902 28.899L22.1878 28.8967C21.7915 28.5229 21.2689 28.3148 20.7259 28.3148C20.1829 28.3148 19.6603 28.5229 19.264 28.8967L19.264 28.8967L19.2616 28.899L15.0824 33.113C14.882 33.302 14.7222 33.5304 14.6129 33.784C14.5034 34.0382 14.4469 34.3124 14.4469 34.5894C14.4469 34.8665 14.5034 35.1407 14.6129 35.3949C14.7222 35.6485 14.882 35.8769 15.0824 36.0659L27.5465 48.6335C27.5466 48.6336 27.5467 48.6337 27.5469 48.6339C27.7375 48.8304 27.9652 48.9867 28.2166 49.0934C28.4682 49.2001 28.7385 49.2552 29.0115 49.2552C29.2846 49.2552 29.5548 49.2001 29.8064 49.0934C30.0579 48.9867 30.2856 48.8304 30.4762 48.6339C30.4763 48.6337 30.4765 48.6336 30.4766 48.6335L52.915 26.0088C52.9151 26.0086 52.9152 26.0085 52.9154 26.0084C53.1103 25.8162 53.2652 25.5866 53.3709 25.3333C53.4767 25.0799 53.5312 24.8077 53.5312 24.5327C53.5312 24.2578 53.4767 23.9856 53.3709 23.7321C53.2652 23.4788 53.1103 23.2493 52.9154 23.057C52.9152 23.0569 52.9151 23.0568 52.915 23.0567L48.7367 18.8436ZM28.8699 37.9879L28.9409 38.0595L29.0119 37.9879L46.9032 19.9454L46.9033 19.9456L46.9076 19.9407C46.9441 19.8988 46.989 19.8653 47.0393 19.8423C47.0895 19.8194 47.144 19.8075 47.1992 19.8075C47.2543 19.8075 47.3088 19.8194 47.359 19.8423L47.4006 19.7513L47.359 19.8423C47.4093 19.8653 47.4542 19.8988 47.4907 19.9407L47.4906 19.9408L47.4951 19.9454L51.6739 24.1589C51.7485 24.242 51.791 24.3497 51.7931 24.4621L51.7934 24.4787L51.7991 24.4943C51.8201 24.5521 51.8258 24.6145 51.8157 24.6752C51.8058 24.7344 51.7813 24.7899 51.7444 24.8368L29.3088 47.4587C29.3087 47.4588 29.3086 47.4588 29.3085 47.4589C29.2196 47.5469 29.1001 47.596 28.9759 47.596C28.8517 47.596 28.7322 47.5469 28.6433 47.4589C28.6432 47.4588 28.6431 47.4588 28.643 47.4587L16.1782 34.8903C16.1781 34.8902 16.178 34.8901 16.1779 34.89C16.0907 34.8003 16.0417 34.6795 16.0417 34.5535C16.0417 34.4275 16.0907 34.3067 16.1779 34.217C16.178 34.2169 16.1781 34.2168 16.1782 34.2167L20.3568 30.0034C20.357 30.0032 20.3572 30.003 20.3574 30.0028C20.4372 29.9253 20.5435 29.8822 20.654 29.8822C20.7644 29.8822 20.8708 29.9253 20.9506 30.0028C20.9507 30.003 20.9509 30.0032 20.9511 30.0034L28.8699 37.9879Z" fill="#F55656" stroke="#F55656" stroke-width="0.2"/>
<path d="M34.0002 0.329687H34C27.4533 0.329687 21.0536 2.28715 15.6103 5.95444C10.167 9.62172 5.92465 14.8341 3.41949 20.9323C0.914335 27.0305 0.258885 33.7407 1.53599 40.2145C2.8131 46.6883 5.96543 52.6349 10.5945 57.3024C15.2235 61.9699 21.1214 65.1486 27.5424 66.4364C33.9633 67.7242 40.6188 67.0633 46.6671 64.5372C52.7154 62.0111 57.8849 57.7333 61.5219 52.245C65.1588 46.7567 67.1 40.3043 67.1 33.7037V33.7036C67.0867 24.8566 63.5953 16.3757 57.3909 10.1198C51.1864 3.86378 42.775 0.343106 34.0002 0.329687ZM33.9999 65.399C27.7831 65.399 21.706 63.5402 16.5368 60.0576C11.3676 56.575 7.3386 51.6249 4.95938 45.8333C2.58015 40.0416 1.95762 33.6686 3.17055 27.5201C4.38348 21.3717 7.37736 15.7241 11.7735 11.2914C16.1696 6.85883 21.7705 3.84028 27.8678 2.61737C33.9651 1.39446 40.2852 2.0221 46.0288 4.42093C51.7724 6.81978 56.6817 10.8821 60.1358 16.0944C63.5898 21.3067 65.4334 27.4347 65.4335 33.7036C65.4216 42.1063 62.1059 50.1613 56.2134 56.1027C50.321 62.0441 42.3327 65.3871 33.9999 65.399Z" fill="#F55656" stroke="#F55656" stroke-width="0.2"/>
</svg>
