<svg width="36" height="16" viewBox="0 0 36 16" fill="none" xmlns="http://www.w3.org/2000/svg">
<path d="M9.5918 13.418V15H0.861328V0.908203H9.5918V2.49023H2.61914V7.01172H9.23047V8.57422H2.61914V13.418H9.5918ZM21.0762 15L19.6602 10.9668H14.0547L12.6387 15H10.793L15.9883 0.908203H17.7266L22.9219 15H21.0762ZM16.8281 3.04688L14.5723 9.47266H19.1426L16.8867 3.04688H16.8281ZM29.9434 15.2344C27.9967 15.2344 26.4505 14.5801 25.3047 13.2715C24.1654 11.9564 23.5957 10.1823 23.5957 7.94922C23.5957 5.73568 24.1719 3.97135 25.3242 2.65625C26.4766 1.33464 28.0163 0.673828 29.9434 0.673828C31.4798 0.673828 32.7819 1.10352 33.8496 1.96289C34.9238 2.81576 35.5716 3.94531 35.793 5.35156H34.0156C33.7878 4.42708 33.3027 3.68815 32.5605 3.13477C31.8184 2.57487 30.946 2.29492 29.9434 2.29492C28.5697 2.29492 27.4694 2.80924 26.6426 3.83789C25.8158 4.86654 25.4023 6.23698 25.4023 7.94922C25.4023 9.68099 25.8125 11.0579 26.6328 12.0801C27.4531 13.1022 28.5599 13.6133 29.9531 13.6133C30.9883 13.6133 31.8607 13.3757 32.5703 12.9004C33.2799 12.4251 33.7617 11.7578 34.0156 10.8984H35.793C35.4674 12.2917 34.8001 13.3626 33.791 14.1113C32.7819 14.86 31.4993 15.2344 29.9434 15.2344Z" fill="#F55656"/>
</svg>
