<svg width="77" height="64" viewBox="0 0 77 64" fill="none" xmlns="http://www.w3.org/2000/svg">
<path d="M26.9613 26.8501C26.1484 24.6178 25.996 22.2334 26.504 19.9503C27.0121 17.6166 28.1297 15.4351 29.857 13.6594C34.7341 8.63676 42.8118 8.53529 47.7905 13.4564L48.0446 13.7101L47.9938 11.9852C47.9938 11.7822 48.1462 11.63 48.3494 11.63C48.5526 11.63 48.705 11.7822 48.705 11.9852L48.7558 14.5726C48.7558 14.7755 48.6034 14.9277 48.4002 14.9277L45.8092 14.9785C45.606 14.9785 45.4536 14.8263 45.4536 14.6233C45.4536 14.4204 45.606 14.2682 45.8092 14.2682L47.5365 14.2175L47.2825 13.9638C44.9964 11.7315 41.9482 10.5139 38.7476 10.5646C35.547 10.6154 32.5496 11.8837 30.3143 14.1667C27.0629 17.4644 26.0468 22.2333 27.6217 26.5964C27.6725 26.7994 27.5709 27.0023 27.4185 27.053C27.3677 27.053 27.3169 27.1038 27.3169 27.1038C27.1137 27.053 27.0121 27.0023 26.9613 26.8501ZM47.4857 30.9088C42.8626 35.627 35.2422 35.7285 30.5683 31.1117L30.2635 30.8581L31.9908 30.8073C32.194 30.8073 32.3464 30.6044 32.3464 30.4522C32.3464 30.2493 32.1432 30.097 31.9908 30.097L29.3998 30.1478C29.1966 30.1478 29.0442 30.3507 29.0442 30.5029L29.095 33.0903C29.095 33.2933 29.2982 33.4455 29.4506 33.4455C29.6538 33.4455 29.8062 33.2425 29.8062 33.0903L29.7554 31.3654L30.0094 31.6191C32.4988 34.0035 35.6994 35.2211 38.9 35.2211C42.2022 35.2211 45.5044 33.9528 47.9938 31.4161C49.7211 29.6912 50.8387 27.5096 51.3468 25.1252C51.804 22.8422 51.6516 20.4577 50.8895 18.2254C50.8387 18.0225 50.6355 17.921 50.4323 18.0225C50.2291 18.0732 50.1275 18.2761 50.2291 18.4791C51.7024 22.8422 50.6863 27.5604 47.4857 30.9088Z" fill="#F55656" stroke="#F55656" stroke-width="1.1"/>
<path d="M4.43465 0.000283616C3.85049 -0.00636238 3.27089 0.103855 2.7299 0.324488C2.18891 0.545121 1.69743 0.871694 1.28434 1.28505C0.871253 1.69841 0.544877 2.1902 0.324386 2.73154C0.103895 3.27288 -0.00626498 3.85285 0.000376757 4.43738V48.801C-0.00728963 49.3861 0.102113 49.9669 0.322146 50.5091C0.542178 51.0514 0.868393 51.5441 1.28159 51.9582C1.69478 52.3724 2.18661 52.6997 2.72811 52.9208C3.2696 53.1419 3.84984 53.2524 4.43465 53.2457H31.0365V62.118H27.4906C27.2555 62.118 27.03 62.2115 26.8637 62.3778C26.6975 62.5442 26.6041 62.7698 26.6041 63.0051C26.6041 63.2403 26.6975 63.466 26.8637 63.6323C27.03 63.7987 27.2555 63.8921 27.4906 63.8921H48.7697C49.0048 63.8921 49.2303 63.7987 49.3966 63.6323C49.5628 63.466 49.6562 63.2403 49.6562 63.0051C49.6562 62.7698 49.5628 62.5442 49.3966 62.3778C49.2303 62.2115 49.0048 62.118 48.7697 62.118H45.2238V53.2457H71.8237C72.4079 53.2523 72.9875 53.1421 73.5285 52.9215C74.0695 52.7009 74.561 52.3743 74.974 51.9609C75.3871 51.5476 75.7135 51.0558 75.934 50.5144C76.1545 49.9731 76.2647 49.3931 76.258 48.8086V4.43738C76.2647 3.85285 76.1545 3.27288 75.934 2.73154C75.7135 2.1902 75.3871 1.69841 74.974 1.28505C74.561 0.871694 74.0695 0.545121 73.5285 0.324488C72.9875 0.103855 72.4079 -0.00636238 71.8237 0.000283616H4.43465ZM4.43465 1.77435H71.8237C72.1764 1.76654 72.5269 1.8303 72.8543 1.96175C73.1816 2.0932 73.479 2.28963 73.7284 2.53919C73.9778 2.78876 74.1741 3.08628 74.3054 3.41383C74.4368 3.74138 74.5005 4.09215 74.4927 4.44501V40.8233H1.77523V4.44501C1.76772 4.09313 1.83132 3.74336 1.96222 3.41668C2.09311 3.09 2.2886 2.79314 2.53696 2.54391C2.78532 2.29468 3.08142 2.0982 3.40752 1.96629C3.73361 1.83438 4.08297 1.76977 4.43465 1.77628V1.77435ZM1.7657 42.5974H74.4755V48.8086C74.4833 49.1614 74.4196 49.5122 74.2883 49.8398C74.1569 50.1673 73.9606 50.4648 73.7112 50.7144C73.4618 50.964 73.1645 51.1604 72.8371 51.2918C72.5098 51.4233 72.1592 51.4871 71.8066 51.4792H4.43465C4.08202 51.4871 3.73146 51.4233 3.40412 51.2918C3.07677 51.1604 2.77943 50.964 2.53002 50.7144C2.28061 50.4648 2.08431 50.1673 1.95295 49.8398C1.82158 49.5122 1.75789 49.1614 1.7657 48.8086V42.5974ZM38.1206 45.268C37.77 45.268 37.4272 45.3721 37.1356 45.567C36.8441 45.762 36.6168 46.0391 36.4826 46.3632C36.3484 46.6874 36.3133 47.0441 36.3817 47.3882C36.4501 47.7324 36.619 48.0485 36.867 48.2966C37.1149 48.5447 37.4308 48.7136 37.7747 48.7821C38.1187 48.8506 38.4751 48.8154 38.7991 48.6812C39.1231 48.5469 39.4 48.3195 39.5948 48.0277C39.7896 47.736 39.8936 47.393 39.8936 47.0421C39.8966 46.5708 39.7127 46.1174 39.3821 45.7816C39.0515 45.4458 38.6012 45.2549 38.1301 45.2509L38.1206 45.268ZM32.8094 53.2457H43.449V62.118H32.8094V53.2457Z" fill="#F55656"/>
</svg>
