<svg width="74" height="61" viewBox="0 0 74 61" fill="none" xmlns="http://www.w3.org/2000/svg">
<path d="M64.1417 1.07974C64.5531 1.29905 66.2457 3.15979 67.3516 4.59521C70.4132 8.5958 72.0046 11.6727 72.6925 14.9223C72.9622 16.1783 73.0296 17.009 72.9892 18.2916C72.9487 19.5808 72.8408 20.252 72.4969 21.3884C70.6627 27.4956 69.8467 33.8819 69.6377 43.6973C69.604 45.4119 69.5433 49.3194 69.5028 52.3697C69.4016 60.3975 69.4219 59.6465 69.2735 59.806C69.1521 59.9389 69.078 59.9456 67.8709 59.9456C66.6908 59.9456 66.5964 59.9389 66.4682 59.8127C66.3334 59.6797 66.3334 59.5934 66.3334 50.1567C66.3334 40.348 66.2862 31.7886 66.2322 30.2734C66.1918 29.2434 66.1243 28.9775 65.8343 28.6586C65.632 28.4459 65.5646 28.4193 65.2005 28.3927C63.899 28.2997 61.7208 29.6022 59.4483 31.8351C57.8433 33.4167 56.353 35.2841 53.9254 38.7797C53.5882 39.2648 52.226 41.3116 51.9091 41.81C51.7809 42.0094 51.6124 42.2752 51.5247 42.4014C50.9515 43.272 48.4564 47.3656 47.4179 49.1466C46.575 50.5887 45.1319 53.0276 44.9363 53.3333C43.6078 55.4599 42.4952 56.7491 41.2948 57.5399C39.7371 58.5766 37.8017 59.3275 35.5494 59.7595C34.9088 59.8791 34.349 59.8924 24.0787 59.9522C18.1377 59.9854 10.7738 60.0054 7.7123 59.9987C2.20288 59.9788 2.14219 59.9788 1.96011 59.8392C1.45435 59.4671 1.05649 58.6032 1.00928 57.7525C0.941849 56.6693 1.23856 55.9051 2.00057 55.2073C2.53331 54.7222 3.50437 54.0643 4.42149 53.5659C5.11606 53.1937 8.63615 51.5058 8.73057 51.5058C8.76428 51.5058 8.96659 51.4194 9.18912 51.3131C9.40491 51.2067 10.0388 50.921 10.5985 50.6684C11.9809 50.0504 13.6803 49.1931 15.9596 47.9704C19.2234 46.2293 21.1925 45.1926 21.4016 45.1128C21.6443 45.0198 21.6039 44.9998 23.0605 46.0033C24.5171 47.0068 25.36 47.4919 27.0526 48.3159C30.3636 49.9242 32.7306 50.6153 36.48 51.0738C39.0492 51.3862 39.8517 51.2798 40.6947 50.4824C41.1195 50.077 41.4769 49.4988 41.7804 48.7147C42.0096 48.1099 43.8101 43.066 44.6059 40.8065C46.7705 34.6528 49.7984 27.1168 51.7 23.1295C53.1903 20.0061 57.9714 10.4831 59.1853 8.21036C59.6978 7.24677 60.8239 5.27305 62.1592 2.99365C63.2044 1.21265 63.3797 0.999996 63.7978 0.999996C63.9125 0.999996 64.0676 1.03987 64.1417 1.07974ZM63.2314 2.94048C62.3547 4.43572 61.4174 6.05058 61.1746 6.48253C61.0532 6.70184 60.7363 7.2667 60.4665 7.74518C59.7854 8.9613 54.3839 19.634 53.0352 22.4317C51.5314 25.5485 50.203 28.6586 48.2136 33.6958C47.31 35.9885 46.2783 38.7863 44.5317 43.7305C43.3111 47.1596 42.5761 49.1865 42.394 49.6118C41.9017 50.7415 40.9914 51.5988 39.8652 51.9909C39.0897 52.2567 37.1004 52.1437 34.3153 51.6653C31.7595 51.2333 29.2173 50.3827 26.5468 49.0735C24.9082 48.2628 23.9776 47.7245 22.5884 46.7675C22.022 46.3755 21.5364 46.0565 21.5162 46.0565C21.4892 46.0565 21.0239 46.2891 20.4845 46.5815C19.945 46.8672 18.893 47.4254 18.1512 47.8175C17.4094 48.2096 16.0742 48.9207 15.1841 49.3992C13.7005 50.1966 11.6168 51.22 11.0368 51.4393C10.9087 51.4858 10.4299 51.7051 9.97137 51.9178C9.51281 52.1305 9.12843 52.3032 9.11494 52.3032C9.10146 52.3032 8.29224 52.682 7.31444 53.1406C4.56984 54.4364 3.43019 55.101 2.60749 55.8918C2.20963 56.2706 2.13544 56.3836 2.00732 56.7823C1.84547 57.294 1.83199 57.5332 1.93988 58.0317C2.02081 58.4105 2.27032 58.9421 2.41867 59.0617C2.47936 59.1149 6.91657 59.1215 18.4884 59.075C34.0254 59.0218 34.4907 59.0152 35.2864 58.8889C37.269 58.5633 39.4336 57.7326 40.8767 56.7491C41.922 56.038 43.0616 54.6956 44.1608 52.8681C44.5789 52.1703 44.8621 51.6919 46.0692 49.645C48.072 46.2425 50.9313 41.5907 51.8349 40.2749C51.9698 40.0755 52.3811 39.4641 52.752 38.9126C54.856 35.7759 56.7981 33.2572 58.4368 31.556C60.271 29.6487 62.6582 28.0073 64.1755 27.6086C64.8093 27.4424 65.5444 27.4557 65.9422 27.6418C66.3671 27.8412 66.7515 28.2731 66.9403 28.7516C67.0886 29.1237 67.1021 29.2633 67.1493 31.4032C67.1763 32.6459 67.2033 39.3844 67.2033 46.3688L67.21 59.0816H67.8439H68.4778L68.5183 57.4003C68.5385 56.4833 68.5857 53.32 68.6261 50.376C68.7408 41.3913 68.8285 38.9259 69.1724 34.8256C69.5972 29.6753 70.285 25.7678 71.4854 21.6542C71.8832 20.2786 71.9777 19.8333 72.0721 18.903C72.3351 16.1384 71.4719 12.809 69.6512 9.57269C68.6936 7.87809 66.7649 5.18666 65.2881 3.49206C64.7486 2.86738 63.899 1.99682 63.8383 1.99682C63.8113 1.99682 63.5348 2.42213 63.2314 2.94048Z" fill="#F55656" stroke="#F55656"/>
</svg>
