<svg width="34" height="33" viewBox="0 0 34 33" fill="none" xmlns="http://www.w3.org/2000/svg">
<path d="M16.8573 1.18972C16.8737 1.13938 16.8948 1.1209 16.9091 1.11119C16.9287 1.09779 16.9602 1.08607 17 1.08607C17.0398 1.08607 17.0713 1.09779 17.0909 1.11119C17.1052 1.1209 17.1263 1.13938 17.1427 1.18972L20.4574 11.3913C20.705 12.1536 21.4154 12.6697 22.2168 12.6697H32.9434C32.9964 12.6697 33.0205 12.684 33.0341 12.6946C33.0529 12.7091 33.0738 12.7355 33.0861 12.7733C33.0984 12.8111 33.097 12.8447 33.0903 12.8676C33.0855 12.8841 33.0744 12.9099 33.0316 12.941L24.3536 19.246C23.7052 19.7171 23.4339 20.5521 23.6815 21.3143L26.9963 31.516C27.0126 31.5663 27.0064 31.5936 27.0006 31.6099C26.9925 31.6323 26.9739 31.6603 26.9418 31.6837C26.9096 31.707 26.8772 31.7161 26.8534 31.7168C26.8362 31.7173 26.8082 31.7148 26.7654 31.6837L18.0874 25.3787C17.439 24.9076 16.561 24.9076 15.9126 25.3787L7.23458 31.6837C7.19176 31.7148 7.16382 31.7173 7.14658 31.7168C7.12279 31.7161 7.0904 31.707 7.05824 31.6837C7.02608 31.6603 7.00746 31.6323 6.99943 31.6099C6.99361 31.5936 6.9874 31.5663 7.00375 31.516L10.3185 21.3143C10.5661 20.5521 10.2948 19.7171 9.64641 19.246L0.968385 12.941C0.925569 12.9099 0.914518 12.8841 0.909683 12.8676C0.903014 12.8447 0.901612 12.8111 0.913895 12.7733C0.926178 12.7355 0.947067 12.7091 0.965888 12.6946C0.979531 12.684 1.00363 12.6697 1.05655 12.6697H11.7832C12.5846 12.6697 13.295 12.1536 13.5426 11.3913L16.8573 1.18972Z" stroke="#F55656" stroke-width="1.7"/>
</svg>
