<svg width="88" height="64" viewBox="0 0 88 64" fill="none" xmlns="http://www.w3.org/2000/svg">
<path d="M85.083 28.7012H85.3473L85.3326 28.4373C84.9407 21.3825 82.1977 14.6192 77.2977 9.3247C76.897 8.83913 76.897 8.11886 77.3756 7.63232C77.8626 7.23361 78.5832 7.23618 79.0685 7.71798C84.6634 13.7973 87.7501 21.7088 87.7501 30.007C87.7501 48.0527 72.9848 62.8184 54.9395 62.8184C36.8943 62.8184 22.1289 48.0527 22.1289 30.007C22.1289 17.3652 29.4633 5.78438 40.8501 0.380373L40.8587 0.376295L40.8669 0.371577C41.3885 0.0735304 42.1216 0.35528 42.4671 0.953187C42.7746 1.5762 42.4824 2.21622 41.8908 2.55841C31.7975 7.36415 25.1345 17.3615 24.5464 28.4379L24.5324 28.7012H24.796H27.8104C28.4502 28.7012 29.0189 29.2699 29.0189 29.9098C29.0189 30.5496 28.4502 31.1184 27.8104 31.1184H24.796H24.5331L24.5463 31.3809C25.3307 46.9702 37.8795 59.5193 53.4684 60.3037L53.731 60.3169V60.054V57.0396C53.731 56.3997 54.2997 55.831 54.9395 55.831C55.5793 55.831 56.1481 56.3997 56.1481 57.0396V60.054V60.3153L56.4091 60.3038C72 59.6174 84.5484 47.0666 85.3327 31.3809L85.3458 31.1184H85.083H82.0687C81.4289 31.1184 80.8601 30.5496 80.8601 29.9098C80.8601 29.2699 81.4289 28.7012 82.0687 28.7012H85.083Z" fill="#F55656" stroke="white" stroke-width="0.5"/>
<path d="M53.5978 25.8081L53.6979 25.9082L53.8352 25.8739C54.23 25.7752 54.5886 25.6869 54.9414 25.6869C55.5761 25.6869 56.2186 25.8688 56.7743 26.1467L56.9349 26.2269L57.0623 26.1005L69.8976 13.3622L69.8983 13.3615C70.384 12.8757 71.1009 12.8757 71.5867 13.3615C72.0725 13.8473 72.0725 14.5642 71.5867 15.05L58.7514 27.8856L58.6239 28.013L58.7045 28.1741C58.9824 28.7299 59.1643 29.3724 59.1643 30.0071C59.1643 32.3 57.2343 34.2301 54.9414 34.2301C52.645 34.2301 50.7185 32.3937 50.7185 30.0071C50.7185 28.9887 50.9943 28.1668 51.5436 27.4344L51.6737 27.261L51.5204 27.1076L36.0597 11.6466C35.5739 11.1608 35.5739 10.4439 36.0597 9.9581C36.5455 9.4723 37.2623 9.4723 37.7481 9.9581L53.5978 25.8081Z" fill="#F55656" stroke="white" stroke-width="0.5"/>
<path d="M16.0456 19.0578H6.32184C5.68202 19.0578 5.11328 18.4891 5.11328 17.8492C5.11328 17.2094 5.68202 16.6406 6.32184 16.6406H16.0456C16.6854 16.6406 17.2541 17.2094 17.2541 17.8492C17.2541 18.4891 16.6854 19.0578 16.0456 19.0578Z" fill="#F55656" stroke="white" stroke-width="0.5"/>
<path d="M1.45856 28.7969H18.475C19.1149 28.7969 19.6836 29.3656 19.6836 30.0055C19.6836 30.6453 19.1149 31.2141 18.475 31.2141H1.45856C0.80765 31.2141 0.25 30.7317 0.25 30.0055C0.25 29.2792 0.80765 28.7969 1.45856 28.7969Z" fill="#F55656" stroke="white" stroke-width="0.5"/>
<path d="M6.32184 40.9531H16.0456C16.6854 40.9531 17.2541 41.5219 17.2541 42.1617C17.2541 42.8016 16.6854 43.3703 16.0456 43.3703H6.32184C5.68202 43.3703 5.11328 42.8016 5.11328 42.1617C5.11328 41.5219 5.68202 40.9531 6.32184 40.9531Z" fill="#F55656" stroke="white" stroke-width="0.5"/>
</svg>
