<svg width="30" height="30" viewBox="0 0 30 30" fill="none" xmlns="http://www.w3.org/2000/svg">
<path d="M25.7895 0.160661C25.4565 0.237834 24.8229 0.532722 23.9884 0.9996C22.3134 1.93678 20.9561 3.02352 19.7056 4.41996C19.0031 5.20445 18.4729 5.91445 18.0001 6.71101C17.8811 6.90942 17.7909 6.90202 17.0928 6.64351C15.4938 6.04176 14.3803 5.82783 13.2141 5.8922C12.3719 5.93869 11.7747 6.1078 11.1514 6.47638C10.3633 6.94379 10.3815 7.49666 11.2004 8.03627C11.467 8.21339 11.6731 8.47121 11.8414 8.83014C12.1433 9.47873 12.2567 10.1315 12.2976 11.4877C12.3114 11.9634 12.315 11.9725 12.4079 12.1406C12.5759 12.4377 12.8474 12.4784 13.2348 12.2652C13.4179 12.1622 13.6942 11.8995 15.3123 10.2661C16.3413 9.23154 17.2214 8.3568 17.2723 8.32615C17.5205 8.17011 17.5366 8.29299 17.3209 8.70096C16.6827 9.92128 16.3083 11.4922 16.2616 13.1687C16.2451 13.7668 16.2685 14.5267 16.3195 15.0035L16.3686 15.4433L16.1033 15.8509C15.6891 16.4771 15.2312 17.2636 14.486 18.6197C13.3697 20.6524 12.8904 21.4431 12.1628 22.4456C11.5676 23.2675 11.1076 23.6796 10.4171 24.0086C9.84733 24.2814 9.28957 24.436 7.98193 24.6845C6.20276 25.0241 5.21134 25.283 4.06217 25.7116C2.87067 26.1579 1.78227 26.7904 1.52864 27.185C1.34892 27.4611 1.41312 27.671 1.72944 27.8516C2.05862 28.0407 2.87984 28.2863 3.71805 28.4473C6.01694 28.8897 8.20761 29.0535 10.523 28.9535C12.6316 28.865 13.4702 28.6949 14.4096 28.1666C15.6042 27.4973 16.4003 26.2775 16.6638 24.7159C16.727 24.3472 16.7265 24.338 16.6589 23.0019C16.5992 21.8077 16.5972 21.6036 16.6339 21.1468C16.8654 18.2223 17.8161 15.9915 19.5135 14.394C20.0693 13.8682 21.2596 13.063 22.0041 12.7032C22.3085 12.5565 22.6638 12.4347 22.9424 12.3791C23.5301 12.2632 23.9479 12.4319 24.1957 12.8855C24.354 13.1738 24.4283 13.5101 24.4604 14.0931C24.5613 15.8079 24.5318 17.4031 24.318 21.6045C24.2217 23.5035 24.0614 26.4302 24.0406 26.6696L24.0294 26.8032L24.2886 26.7889L24.5477 26.7746L24.6344 25.43C24.723 24.1194 24.8567 22.1131 25.028 19.554C25.149 17.7651 25.28 16.6625 25.5254 15.3896C25.9562 13.1596 26.6539 11.2243 27.5188 9.84918C27.7949 9.41312 28.2282 8.8539 28.484 8.61081C28.6957 8.41037 28.8267 8.20511 28.8203 8.08788C28.8085 7.87503 28.6343 7.63402 28.405 7.51671C27.8923 7.25415 26.8197 7.33192 25.9335 7.70264C25.2408 7.99151 24.1863 8.56645 23.299 9.14145C23.0391 9.3105 22.8147 9.44975 22.7993 9.45061C22.7839 9.45146 22.6427 9.36024 22.4879 9.2481C22.1624 9.01235 21.3498 8.53118 20.9204 8.31972C20.5228 8.12507 19.671 7.77293 19.2485 7.63225C18.9584 7.53378 18.8724 7.48902 18.7165 7.35529C18.5215 7.18659 18.4758 7.08701 18.5745 7.02586C18.6045 7.00873 18.7449 6.97313 18.8856 6.94371C19.5441 6.82072 20.5448 6.56126 21.3719 6.29592C23.4156 5.64781 25.0942 4.83111 26.4352 3.8412C26.8692 3.52019 27.0894 3.30382 27.1431 3.15543C27.2047 2.98184 27.1708 2.70523 27.0294 2.27365C26.9586 2.05478 26.7964 1.52843 26.671 1.10526C26.5453 0.678999 26.4258 0.308097 26.4085 0.275015C26.3236 0.13737 26.0828 0.0918705 25.7895 0.160661ZM25.073 0.914978C25.1811 1.0235 25.198 1.10611 25.1306 1.2305C24.7682 1.8972 20.5629 5.31948 19.0448 6.18302C18.7148 6.37142 18.5936 6.41833 18.5602 6.37376C18.53 6.33211 19.0076 5.73332 19.6742 4.97247C21.4207 2.97621 23.1081 1.58968 24.5291 0.985221C24.8738 0.83933 24.9815 0.827201 25.073 0.914978ZM18.0185 7.04417C18.0667 7.07555 18.1417 7.14567 18.182 7.20224C18.2885 7.33869 18.2922 7.62934 18.1917 7.77104C17.9998 8.05083 17.6527 8.09783 17.4086 7.87924C17.1545 7.64882 17.1836 7.27901 17.4716 7.05889C17.5546 6.99242 17.6034 6.98044 17.752 6.98152C17.8667 6.98448 17.9608 7.00713 18.0185 7.04417ZM28.0581 7.5668C28.7321 7.66884 28.6988 8.01723 27.9648 8.56829C27.3231 9.05238 26.1333 9.69668 24.9394 10.2112C24.7852 10.2785 24.5135 10.4018 24.3358 10.489L24.0163 10.6428L23.867 10.4623C23.7841 10.3616 23.571 10.1444 23.3883 9.97505C23.2088 9.8055 23.0707 9.65841 23.0824 9.64539C23.1379 9.58663 24.1478 8.9337 24.5973 8.66754C25.1697 8.32961 25.4705 8.17377 25.9423 7.97445C26.7497 7.63284 27.5244 7.48487 28.0581 7.5668ZM16.8241 8.27972C16.8272 8.33524 16.6002 8.59531 15.9166 9.32925C14.3152 11.039 13.55 11.8084 13.2692 11.991C12.9645 12.1904 12.8113 12.106 12.7938 11.7326C12.7836 11.5475 12.7937 11.5067 12.8843 11.3532C13.2636 10.7134 14.3081 9.78934 15.8025 8.77549C16.6973 8.16913 16.8148 8.11005 16.8241 8.27972ZM18.1274 8.28823C18.4966 8.64225 19.0645 10.2973 19.263 11.5952C19.2954 11.7883 19.3256 12.0002 19.3354 12.0646C19.3538 12.175 19.3453 12.1878 19.1071 12.4145C18.9688 12.5428 18.8536 12.642 18.847 12.6361C18.8405 12.6303 18.7761 12.5287 18.6987 12.4153C18.172 11.6183 17.8155 10.2053 17.7992 8.84474C17.791 8.30371 17.8136 8.20963 17.9524 8.20197C18.0018 8.19924 18.0686 8.23268 18.1274 8.28823ZM23.3756 10.9783C23.3463 11.0078 23.1689 11.1011 23.1682 11.0888C23.167 11.0672 23.3227 10.9719 23.3595 10.9668C23.375 10.9659 23.3815 10.9718 23.3756 10.9783ZM23.0787 11.1494C23.0791 11.1556 23.0583 11.1722 23.0311 11.183C23.0069 11.1936 22.9944 11.1912 23.0026 11.1722C23.0194 11.1403 23.0774 11.1247 23.0787 11.1494ZM22.842 11.2893C22.7734 11.3364 22.7043 11.3743 22.692 11.375C22.661 11.3736 22.9087 11.2083 22.9426 11.2064C22.9611 11.2054 22.9136 11.242 22.842 11.2893ZM19.3953 12.6461C19.4076 12.7011 19.4278 13.0094 19.4393 13.3306L19.456 13.9145L19.0137 14.4216C18.2481 15.2962 17.8899 15.8141 17.2628 16.9565C16.8048 17.7956 16.5456 18.3699 16.403 18.8698C16.219 19.5173 16.101 20.2943 16.0389 21.2446C15.9731 22.2941 15.6845 23.0093 15.0342 23.729C14.6085 24.2012 14.2071 24.4987 13.3724 24.9625C12.6698 25.3509 12.467 25.4333 11.9343 25.537C10.5656 25.8013 8.22197 25.8378 8.00148 25.5993C7.95231 25.5494 7.96335 25.357 8.01805 25.2828C8.08732 25.1923 8.2776 25.1076 9.01451 24.8348C10.1578 24.4128 10.7961 24.0898 11.4679 23.5917C12.1458 23.0901 12.4977 22.5694 13.8839 20.0454C15.5007 17.1002 16.1793 16.0509 17.4456 14.5484C17.9483 13.9575 19.2791 12.5597 19.3528 12.5494C19.3652 12.5487 19.3832 12.5942 19.3953 12.6461Z" fill="white"/>
<path d="M17.5861 7.20559C17.3377 7.35855 17.3994 7.74811 17.6813 7.8099C17.9725 7.87118 18.1764 7.58454 18.0346 7.31389C17.9618 7.17248 17.7266 7.11738 17.5861 7.20559Z" fill="white"/>
</svg>
